<?xml version="1.0" standalone="no"?>
<!DOCTYPE svg PUBLIC "-//W3C//DTD SVG 20010904//EN"
 "http://www.w3.org/TR/2001/REC-SVG-20010904/DTD/svg10.dtd">
<svg version="1.0" xmlns="http://www.w3.org/2000/svg"
 width="1366.000000pt" height="819.000000pt" viewBox="0 0 1366.000000 819.000000"
 preserveAspectRatio="xMidYMid meet">

<g transform="translate(0.000000,819.000000) scale(0.100000,-0.100000)"
fill="#000000" stroke="none">
<path d="M6260 7513 c-348 -33 -570 -88 -766 -189 -60 -31 -139 -68 -175 -83
-185 -77 -614 -423 -1046 -844 -211 -206 -638 -661 -698 -742 -10 -14 -14 -15
-15 -6 0 8 18 31 40 53 23 21 38 38 35 38 -5 0 -105 -81 -214 -172 -15 -13
-20 -23 -13 -30 6 -6 165 -6 453 1 405 10 1669 8 1687 -2 4 -3 99 -8 212 -11
277 -9 360 -15 383 -28 15 -8 18 -7 12 3 -6 9 26 11 156 5 90 -3 232 -9 314
-12 83 -3 166 -7 185 -9 19 -2 61 -4 93 -4 31 -1 57 -5 57 -10 0 -5 -10 -7
-22 -4 -17 4 -20 3 -12 -6 6 -7 43 -12 87 -13 43 0 77 -3 77 -7 0 -4 48 -6
107 -6 76 0 108 4 110 13 3 6 13 12 24 12 12 0 16 -5 13 -15 -4 -8 -1 -15 5
-15 6 0 11 7 11 15 0 11 10 15 33 14 30 -2 30 -2 5 -6 -33 -5 -37 -18 -8 -26
11 -3 20 -1 20 5 0 6 11 8 25 6 14 -3 25 -1 25 3 0 5 11 9 25 9 16 0 25 -6 25
-15 0 -8 4 -15 10 -15 5 0 7 7 4 15 -5 11 1 15 26 15 17 0 29 -4 26 -9 -3 -5
1 -12 10 -15 8 -3 12 -2 9 3 -3 5 -1 12 5 16 5 3 10 -1 10 -9 0 -9 4 -16 10
-16 5 0 7 7 3 16 -4 12 0 14 18 10 56 -12 711 -44 1032 -51 178 -4 197 -9 197
-51 0 -30 -53 -70 -172 -130 -49 -24 -88 -46 -88 -49 0 -10 206 98 243 128 39
30 44 50 23 98 -5 12 3 18 36 28 101 30 166 70 233 144 77 86 100 127 161 289
72 193 230 759 272 976 24 126 41 191 48 188 14 -5 28 100 19 136 -4 12 -26
38 -50 57 l-44 35 19 26 c11 15 43 45 72 67 185 142 454 190 827 148 145 -16
187 -14 69 3 -252 37 -674 41 -807 8 -95 -24 -176 -68 -265 -142 l-78 -66
-112 11 c-843 83 -2363 100 -3201 36 -333 -26 -449 -35 -495 -40 l-45 -6 35
15 c220 89 448 153 685 191 123 20 126 30 5 18z m662 -187 c-41 -6 -70 -14
-66 -18 8 -8 6 -9 -34 -13 -57 -6 -27 -15 54 -16 49 -1 94 -2 99 -4 6 -1 39
-3 74 -3 52 -2 62 -5 57 -17 -3 -8 0 -15 6 -15 6 0 8 -3 4 -7 -4 -5 -14 1 -22
11 -10 14 -14 16 -14 5 0 -11 -2 -11 -8 -1 -7 10 -15 8 -36 -9 -14 -11 -33
-19 -40 -16 -8 3 -17 3 -20 0 -3 -4 -21 -8 -38 -9 -66 -6 -261 -53 -268 -65
-5 -7 -18 -9 -36 -5 -16 4 -26 4 -21 0 4 -4 60 -13 125 -20 136 -14 222 -32
222 -45 0 -5 -40 -9 -89 -9 -79 0 -93 -3 -116 -22 -25 -23 -75 -140 -75 -178
0 -13 -14 -25 -42 -38 -79 -35 -156 -147 -186 -272 -15 -63 -36 -275 -29 -294
4 -9 18 -16 34 -16 48 0 11 -16 -66 -28 -41 -7 -101 -23 -133 -36 l-59 -24 6
102 c3 55 11 125 17 154 10 47 9 61 -11 122 l-22 69 45 110 c54 132 130 285
162 328 35 46 29 54 -7 10 -17 -21 -37 -36 -44 -33 -7 2 -22 -6 -34 -20 -11
-13 -25 -24 -31 -24 -5 0 -10 -7 -10 -15 0 -8 -4 -15 -9 -15 -5 0 -12 -9 -16
-19 -3 -11 -15 -23 -26 -26 -10 -4 -17 -11 -14 -16 7 -10 -18 -39 -34 -39 -6
0 -11 -7 -11 -16 0 -8 5 -12 10 -9 6 3 10 3 10 -2 0 -4 -14 -14 -30 -21 -17
-8 -28 -18 -24 -23 3 -5 -2 -9 -10 -9 -9 0 -16 -7 -16 -16 0 -10 -6 -14 -15
-11 -8 4 -17 2 -20 -3 -4 -6 -1 -10 5 -10 6 0 -3 -14 -20 -31 -17 -17 -34 -29
-37 -25 -9 9 -62 -56 -68 -86 -4 -16 -11 -28 -15 -28 -5 0 -7 8 -4 18 5 14 4
14 -4 2 -6 -8 -9 -17 -6 -22 3 -4 -3 -16 -13 -26 -10 -10 -24 -27 -31 -38 -11
-17 -12 -14 -8 21 l5 40 -18 -34 c-15 -29 -19 -31 -25 -15 -6 15 -11 11 -27
-26 -65 -144 -213 -574 -205 -595 6 -17 -9 -22 -99 -30 -130 -12 -181 -38
-164 -83 7 -18 14 -21 34 -16 19 5 25 2 25 -10 0 -9 -4 -16 -10 -16 -5 0 -10
3 -10 8 0 4 -17 8 -38 9 -21 1 -147 30 -280 63 -134 33 -247 58 -252 55 -5 -3
-21 -3 -35 1 -20 5 -24 9 -13 16 8 5 2 6 -17 2 -20 -4 -26 -2 -17 4 9 6 -35 8
-120 7 -73 -1 -125 1 -115 3 9 2 15 7 13 11 -3 4 -40 4 -83 0 -91 -9 -493 -18
-493 -12 0 14 144 162 153 156 5 -3 7 -1 3 5 -6 11 10 27 29 27 6 0 10 7 10
15 0 8 5 15 12 15 6 0 15 4 20 9 5 5 3 6 -4 2 -24 -14 -13 7 18 35 18 16 36
26 42 22 6 -3 7 -2 4 4 -11 17 534 530 783 736 58 48 139 117 180 152 100 87
225 150 350 175 209 42 904 86 1380 87 l95 0 -73 -11z m2408 -361 c0 -8 12
-25 26 -38 22 -21 25 -29 18 -61 -8 -45 -15 -48 -147 -69 -125 -19 -195 -53
-247 -118 -69 -87 -114 -252 -114 -421 -1 -113 -14 -126 -60 -59 -27 39 -95
94 -131 104 -49 16 -180 28 -292 28 l-122 1 -5 31 c-3 18 -5 39 -5 47 0 8 -3
69 -7 135 -11 204 -10 321 3 337 7 8 10 17 7 20 -14 15 51 47 109 53 119 12
404 22 685 23 241 2 282 0 282 -13z m-1199 -73 c-14 -27 -14 -33 2 -29 6 1 10
-5 8 -13 -11 -40 -12 -80 -2 -80 6 0 8 -6 5 -14 -3 -8 0 -17 6 -21 9 -6 9 -10
-1 -16 -10 -6 -11 -9 -1 -9 15 0 16 -27 1 -32 -9 -3 -9 -9 0 -25 15 -29 15
-66 -1 -57 -7 5 -8 3 -3 -7 14 -22 14 -57 0 -69 -20 -17 -25 9 -27 167 -2 97
-6 136 -13 125 -16 -28 -7 -407 11 -464 8 -26 -23 -35 -41 -12 -16 21 -19 35
-7 33 21 -4 31 3 25 17 -4 11 -8 12 -13 4 -10 -16 -21 115 -23 265 -1 130 9
179 50 233 27 35 42 38 24 4z m34 -2 c-10 -11 -20 -18 -23 -15 -7 6 18 35 31
35 5 0 2 -9 -8 -20z m-220 -383 c0 -151 -4 -258 -10 -267 -22 -33 -21 328 1
476 3 24 7 44 8 44 0 0 1 -114 1 -253z m220 -45 c0 -24 -5 -32 -17 -32 -13 0
-18 8 -18 28 0 16 3 32 7 36 14 14 28 -2 28 -32z m10 -82 c7 -33 1 -50 -19
-50 -13 0 -28 65 -17 75 13 14 30 2 36 -25z m-2035 -37 c0 -10 -9 -73 -19
-139 -13 -87 -26 -134 -44 -165 -42 -72 -70 -151 -56 -159 6 -4 7 -10 2 -13
-5 -3 -14 -2 -21 2 -8 5 -4 33 17 106 15 55 46 164 67 242 35 129 54 173 54
126z m-1409 -480 c12 -12 -75 -5 -106 8 -14 6 -2 8 38 6 32 -2 62 -8 68 -14z
m1032 10 c-18 -2 -48 -2 -65 0 -18 2 -4 4 32 4 36 0 50 -2 33 -4z m177 3 c0
-3 -4 -8 -10 -11 -5 -3 -10 -1 -10 4 0 6 5 11 10 11 6 0 10 -2 10 -4z m177
-12 c-3 -3 -12 -4 -19 -1 -8 3 -5 6 6 6 11 1 17 -2 13 -5z m103 2 c0 -3 -4 -8
-10 -11 -5 -3 -10 -1 -10 4 0 6 5 11 10 11 6 0 10 -2 10 -4z m-2005 -26 c7
-12 -34 -12 -115 0 -55 7 -54 7 27 9 45 0 85 -3 88 -9z m154 -6 c10 -9 -6 -11
-36 -7 -18 3 -33 9 -33 14 0 8 59 1 69 -7z m204 -14 c15 0 27 -3 27 -7 0 -5
-25 -6 -55 -5 -33 2 -53 8 -49 14 3 5 16 7 28 4 11 -3 33 -6 49 -6z m837 -10
c0 -5 -4 -10 -9 -10 -6 0 -13 5 -16 10 -3 6 1 10 9 10 9 0 16 -4 16 -10z m580
0 c0 -5 -2 -10 -4 -10 -3 0 -8 5 -11 10 -3 6 -1 10 4 10 6 0 11 -4 11 -10z
m-1170 -13 c47 -7 78 -16 69 -19 -17 -7 -227 17 -236 26 -10 10 77 6 167 -7z
m743 6 c-13 -2 -33 -2 -45 0 -13 2 -3 4 22 4 25 0 35 -2 23 -4z m467 -3 c0 -5
-5 -10 -11 -10 -5 0 -7 5 -4 10 3 6 8 10 11 10 2 0 4 -4 4 -10z m-1437 -31
c184 -18 492 -62 552 -78 17 -5 -197 -8 -475 -7 -278 0 -482 -2 -455 -6 28 -3
76 -7 108 -7 31 -1 57 -5 57 -11 0 -5 -21 -7 -50 -4 -31 3 -50 2 -50 -5 0 -6
6 -9 13 -7 6 1 9 1 5 -1 -5 -3 -8 -12 -9 -21 0 -10 -3 -12 -6 -5 -3 10 -9 10
-25 0 -16 -9 -22 -9 -25 1 -3 6 -9 12 -14 12 -6 0 -7 -4 -4 -10 4 -7 -75 -10
-230 -10 -233 0 -236 0 -225 20 7 14 8 20 0 20 -6 0 -3 11 6 25 25 39 4 30
-50 -22 -47 -45 -46 -43 14 27 35 41 72 84 82 95 18 19 18 19 18 -7 0 -18 -5
-25 -17 -24 -10 0 -19 -7 -21 -18 -3 -11 0 -16 7 -11 6 3 9 10 6 14 -2 5 7 9
20 9 14 0 25 -4 25 -9 0 -5 10 -9 23 -9 12 0 44 -7 71 -15 27 -8 87 -15 133
-15 78 0 83 1 83 21 0 19 -4 21 -40 16 -22 -3 -42 -1 -45 3 -7 11 20 20 60 20
27 0 34 5 39 26 l7 25 112 -6 c62 -4 197 -15 300 -26z m1180 24 c-18 -2 -48
-2 -65 0 -18 2 -4 4 32 4 36 0 50 -2 33 -4z m197 -10 c0 -5 -26 -7 -57 -5
-101 5 -111 9 -25 11 45 0 82 -2 82 -6z m128 -10 c-10 -2 -28 -2 -40 0 -13 2
-5 4 17 4 22 1 32 -1 23 -4z m159 -9 c-3 -3 -12 -4 -19 -1 -8 3 -5 6 6 6 11 1
17 -2 13 -5z m-1000 -35 c117 -27 123 -29 123 -40 0 -5 -41 -9 -90 -9 -87 0
-91 1 -100 25 -5 14 -14 25 -20 25 -5 0 -10 5 -10 10 0 13 -6 13 97 -11z
m1650 -15 c-3 -3 -12 -4 -19 -1 -8 3 -5 6 6 6 11 1 17 -2 13 -5z m-1260 -30
c-3 -3 -12 -4 -19 -1 -8 3 -5 6 6 6 11 1 17 -2 13 -5z m46 -11 c-7 -2 -19 -2
-25 0 -7 3 -2 5 12 5 14 0 19 -2 13 -5z m-1259 -22 c3 -4 -6 -6 -19 -3 -14 2
-25 6 -25 8 0 8 39 4 44 -5z m1428 -13 c54 -11 95 -25 92 -30 -3 -4 -10 -6
-15 -2 -5 3 -51 16 -102 29 -118 29 -102 32 25 3z m203 -88 c-3 -5 -15 -10
-26 -10 -10 0 -19 5 -19 10 0 6 12 10 26 10 14 0 23 -4 19 -10z m1088 -87 c-7
-2 -21 -2 -30 0 -10 3 -4 5 12 5 17 0 24 -2 18 -5z m105 0 c-10 -2 -26 -2 -35
0 -10 3 -2 5 17 5 19 0 27 -2 18 -5z"/>
<path d="M5834 6545 c-3 -8 -4 -20 -2 -27 3 -7 7 -1 10 15 6 29 1 36 -8 12z"/>
<path d="M5715 6460 c-11 -11 -33 -21 -48 -22 -23 -2 -31 -12 -56 -73 -88
-213 -187 -492 -178 -501 3 -3 25 -2 48 3 49 10 36 -17 139 273 29 80 68 185
87 234 37 96 39 118 8 86z m-33 -37 c-6 -2 -9 -10 -6 -15 4 -7 2 -8 -5 -4 -13
9 -5 26 12 25 9 0 8 -2 -1 -6z"/>
<path d="M10293 7360 c-169 -24 -306 -82 -389 -165 -104 -103 -157 -251 -304
-835 -166 -663 -201 -821 -191 -855 l9 -30 1 29 c1 45 62 312 167 731 172 690
224 834 336 948 134 135 382 196 685 168 76 -6 156 -14 178 -16 22 -2 9 2 -30
10 -86 18 -377 27 -462 15z"/>
<path d="M10838 7323 c6 -2 18 -2 25 0 6 3 1 5 -13 5 -14 0 -19 -2 -12 -5z"/>
<path d="M10888 7313 c6 -2 18 -2 25 0 6 3 1 5 -13 5 -14 0 -19 -2 -12 -5z"/>
<path d="M10945 7300 c11 -5 27 -9 35 -9 9 0 8 4 -5 9 -11 5 -27 9 -35 9 -9 0
-8 -4 5 -9z"/>
<path d="M11040 7270 c8 -5 20 -10 25 -10 6 0 3 5 -5 10 -8 5 -19 10 -25 10
-5 0 -3 -5 5 -10z"/>
<path d="M11090 7250 c8 -5 20 -10 25 -10 6 0 3 5 -5 10 -8 5 -19 10 -25 10
-5 0 -3 -5 5 -10z"/>
<path d="M10643 7243 c-8 -3 -12 -20 -12 -41 2 -34 2 -34 6 -7 2 17 12 36 21
43 16 12 8 15 -15 5z"/>
<path d="M10678 7232 c-14 -3 -33 -30 -26 -37 2 -2 55 -10 118 -19 229 -33
368 -76 432 -134 103 -93 278 -354 325 -486 34 -98 124 -447 152 -597 17 -90
35 -183 40 -207 8 -40 7 -44 -19 -57 -25 -13 -191 -63 -330 -99 -30 -8 -47
-15 -36 -15 31 -2 192 38 329 80 71 22 134 38 140 36 16 -5 -178 -65 -338
-104 -77 -18 -188 -46 -247 -62 -72 -19 -109 -24 -112 -17 -2 6 -5 -4 -5 -23
-1 -27 2 -32 16 -27 9 4 95 26 192 51 97 24 245 65 330 90 84 25 159 44 165
42 17 -6 -21 -22 -97 -42 -37 -10 -65 -20 -63 -22 6 -6 238 57 252 68 18 14
35 87 35 144 0 34 -12 90 -34 157 -35 103 -137 342 -143 335 -2 -2 14 -44 36
-93 38 -84 54 -141 30 -104 -8 12 -10 11 -10 -7 0 -13 -4 -23 -10 -23 -5 0
-10 6 -10 14 0 8 -5 18 -11 22 -9 5 -10 -1 -4 -22 4 -16 7 -39 6 -52 0 -15 3
-21 11 -16 8 5 9 2 5 -9 -3 -9 3 -58 14 -108 11 -51 18 -96 17 -101 -2 -5 -21
67 -42 159 -40 174 -90 357 -132 479 -27 80 -29 88 -13 78 8 -4 8 0 0 15 -7
11 -15 21 -20 21 -4 0 -8 6 -8 14 0 18 -110 206 -197 336 -77 115 -155 204
-200 227 -70 36 -230 80 -396 108 -44 8 -120 12 -142 7z m1182 -1272 c0 -5 -7
-10 -16 -10 -8 0 -12 5 -9 10 3 6 10 10 16 10 5 0 9 -4 9 -10z m27 -46 c2 -17
1 -17 -4 1 -5 17 -7 16 -19 -10 -8 -17 -12 -22 -9 -11 3 10 0 25 -6 32 -10 12
-7 14 12 11 15 -3 25 -11 26 -23z"/>
<path d="M10258 7223 c7 -3 16 -2 19 1 4 3 -2 6 -13 5 -11 0 -14 -3 -6 -6z"/>
<path d="M11150 7226 c0 -3 9 -10 20 -16 11 -6 20 -8 20 -6 0 3 -9 10 -20 16
-11 6 -20 8 -20 6z"/>
<path d="M10255 7200 c-73 -19 -169 -62 -180 -79 -3 -6 14 -2 39 9 45 19 177
50 214 50 29 0 91 -74 127 -154 93 -200 226 -677 296 -1054 10 -58 16 -108 13
-113 -3 -5 1 -9 8 -9 8 0 31 -9 52 -19 l37 -19 -5 26 c-3 15 -8 45 -12 67 -37
239 -93 483 -166 725 -99 327 -182 528 -236 570 -32 25 -93 25 -187 0z"/>
<path d="M10084 7160 c-149 -87 -228 -252 -328 -680 -226 -977 -238 -1037
-232 -1167 4 -112 12 -137 55 -177 24 -23 42 -30 84 -34 45 -4 66 1 134 31 91
40 313 84 558 111 166 19 457 74 550 105 32 11 65 28 73 38 20 28 26 64 13 84
-6 10 -11 26 -11 34 0 8 -4 23 -9 33 -5 9 -27 56 -50 104 -23 48 -58 104 -78
125 -35 36 -37 37 -41 16 -2 -13 -8 -23 -13 -23 -5 0 -9 -6 -9 -14 0 -8 -9
-18 -20 -21 -11 -3 -20 -13 -20 -20 0 -9 -6 -12 -17 -8 -9 4 -14 2 -10 -3 3
-6 1 -16 -4 -24 -7 -12 -11 -12 -17 -2 -6 9 -16 3 -38 -23 -16 -19 -37 -35
-46 -35 -10 0 -18 -4 -18 -9 0 -5 -20 -15 -45 -22 -25 -7 -45 -19 -45 -26 0
-7 -7 -13 -15 -13 -8 0 -15 4 -15 9 0 12 -45 7 -62 -6 -18 -14 -108 -23 -108
-11 0 5 -7 2 -16 -6 -8 -9 -25 -16 -37 -16 -13 0 -33 -7 -45 -16 -13 -9 -29
-13 -37 -10 -8 3 -15 1 -15 -4 0 -5 12 -11 28 -13 21 -3 19 -4 -11 -6 -27 -1
-36 2 -31 11 5 8 2 9 -10 5 -10 -4 -25 -7 -34 -8 -10 -1 -7 -4 8 -9 19 -6 10
-9 -37 -11 -35 -1 -69 -2 -75 -3 -9 -1 -15 26 -19 89 l-5 90 -2 -77 -2 -78
-55 0 -54 0 -7 60 c-4 33 -9 60 -13 60 -3 0 -7 26 -8 58 -2 70 -66 402 -95
495 -20 66 -20 69 -3 150 38 184 120 488 154 577 38 97 91 188 133 227 13 12
50 38 82 57 33 20 56 36 50 36 -5 0 -32 -14 -60 -30z"/>
<path d="M10029 7083 l-24 -28 28 24 c15 14 27 26 27 28 0 8 -8 1 -31 -24z"/>
<path d="M11650 6486 c0 -11 40 -86 45 -86 3 0 -4 19 -16 43 -23 45 -29 54
-29 43z"/>
<path d="M11730 6321 c0 -6 4 -13 10 -16 6 -3 7 1 4 9 -7 18 -14 21 -14 7z"/>
<path d="M3675 6011 l-40 -8 50 -3 c76 -3 139 -9 152 -15 7 -2 15 0 18 4 12
21 -110 35 -180 22z"/>
<path d="M3555 5993 c-48 -12 -112 -45 -124 -66 -13 -20 -13 -21 2 -9 13 11
16 10 19 -7 3 -19 6 -18 41 15 20 19 37 32 37 28 0 -4 10 2 23 13 12 12 31 23
42 26 l20 5 -20 0 c-11 0 -29 -3 -40 -5z"/>
<path d="M3750 5934 c0 -19 -5 -44 -10 -55 -18 -33 3 -19 54 37 l49 54 -46 0
-47 0 0 -36z"/>
<path d="M10185 5913 c-102 -14 -165 -49 -178 -100 -4 -20 -1 -19 27 10 17 17
30 35 29 38 -3 7 30 21 77 35 14 4 92 10 175 14 l150 7 -125 0 c-69 0 -138 -2
-155 -4z"/>
<path d="M10498 5903 c12 -2 30 -2 40 0 9 3 -1 5 -23 4 -22 0 -30 -2 -17 -4z"/>
<path d="M10583 5893 c9 -2 23 -2 30 0 6 3 -1 5 -18 5 -16 0 -22 -2 -12 -5z"/>
<path d="M10638 5883 c6 -2 18 -2 25 0 6 3 1 5 -13 5 -14 0 -19 -2 -12 -5z"/>
<path d="M10700 5870 c34 -11 60 -11 35 0 -11 5 -29 8 -40 8 -16 0 -15 -2 5
-8z"/>
<path d="M11031 5854 c0 -11 3 -14 6 -6 3 7 2 16 -1 19 -3 4 -6 -2 -5 -13z"/>
<path d="M11041 5804 c0 -11 3 -14 6 -6 3 7 2 16 -1 19 -3 4 -6 -2 -5 -13z"/>
<path d="M11051 5754 c0 -11 3 -14 6 -6 3 7 2 16 -1 19 -3 4 -6 -2 -5 -13z"/>
<path d="M9972 5675 c0 -16 2 -22 5 -12 2 9 2 23 0 30 -3 6 -5 -1 -5 -18z"/>
<path d="M3337 5673 c-9 -8 -8 -93 1 -115 6 -16 16 -12 75 27 37 25 67 47 67
49 0 4 -119 46 -130 46 -4 0 -10 -3 -13 -7z"/>
<path d="M9280 5606 c0 -2 20 -16 45 -30 25 -13 43 -21 40 -15 -7 10 -85 52
-85 45z"/>
<path d="M11288 5573 c7 -3 16 -2 19 1 4 3 -2 6 -13 5 -11 0 -14 -3 -6 -6z"/>
<path d="M11585 5570 c-13 -5 -14 -9 -5 -9 8 0 24 4 35 9 13 5 14 9 5 9 -8 0
-24 -4 -35 -9z"/>
<path d="M11538 5553 c7 -3 16 -2 19 1 4 3 -2 6 -13 5 -11 0 -14 -3 -6 -6z"/>
<path d="M11097 5539 c7 -7 15 -10 18 -7 3 3 -2 9 -12 12 -14 6 -15 5 -6 -5z"/>
<path d="M11498 5543 c7 -3 16 -2 19 1 4 3 -2 6 -13 5 -11 0 -14 -3 -6 -6z"/>
<path d="M6220 5490 c0 -5 5 -10 11 -10 5 0 7 5 4 10 -3 6 -8 10 -11 10 -2 0
-4 -4 -4 -10z"/>
<path d="M5242 5468 c-15 -8 -22 -19 -20 -32 3 -18 10 -21 53 -21 40 0 50 4
53 18 8 40 -37 58 -86 35z"/>
<path d="M6878 5463 c6 -2 18 -2 25 0 6 3 1 5 -13 5 -14 0 -19 -2 -12 -5z"/>
<path d="M9413 5375 c0 -22 2 -30 4 -17 2 12 2 30 0 40 -3 9 -5 -1 -4 -23z"/>
<path d="M12333 5095 c0 -22 2 -30 4 -17 2 12 2 30 0 40 -3 9 -5 -1 -4 -23z"/>
<path d="M8120 4917 c-488 -251 -673 -361 -780 -463 -36 -34 -36 -34 -195 -49
-517 -49 -1038 -191 -1231 -335 -48 -36 -58 -39 -220 -65 -165 -27 -366 -41
-398 -29 -9 3 -16 17 -16 29 0 37 -17 73 -43 89 -50 33 -669 90 -1352 125
-601 31 -762 36 -1205 36 -578 0 -590 -2 -655 -95 -24 -34 -33 -40 -64 -40
-52 0 -108 18 -123 39 -7 10 -26 22 -43 28 -27 9 -30 15 -41 79 -6 38 -18 86
-27 106 -25 59 -105 179 -149 225 -29 29 -39 47 -34 59 6 16 5 16 -14 -1 l-21
-19 38 -40 38 -41 -35 31 c-71 61 -73 57 -11 -16 79 -92 144 -192 159 -245 29
-102 44 -208 45 -321 1 -67 3 -122 4 -120 2 2 8 65 14 142 6 76 12 141 15 143
2 3 24 -9 48 -26 32 -23 59 -32 109 -37 65 -7 66 -8 56 -32 -17 -47 -13 -51
64 -58 587 -52 996 -79 1011 -67 7 6 15 9 17 7 2 -2 45 -6 96 -10 l92 -7 13
28 c15 31 1 29 183 25 l95 -2 -12 -25 c-6 -14 -8 -28 -4 -33 4 -4 72 -8 152
-10 79 -2 144 -8 144 -13 0 -5 -4 -9 -9 -9 -5 0 -35 -32 -66 -71 l-58 -72
-111 7 c-80 5 -114 11 -122 22 -10 12 -13 10 -22 -15 -7 -19 -7 -33 -1 -36 5
-4 9 1 9 9 0 8 5 18 12 22 8 5 9 2 4 -12 -5 -10 -9 -25 -9 -33 0 -12 -23 -13
-130 -7 -72 3 -132 8 -135 10 -2 2 1 14 8 25 17 34 4 41 -75 41 -41 0 -147 7
-237 15 -90 8 -244 21 -343 30 -99 9 -270 25 -379 36 -117 11 -203 16 -208 11
-14 -14 8 -222 28 -271 33 -82 92 -111 347 -165 217 -47 474 -90 726 -121 232
-28 456 -32 906 -15 664 25 781 45 905 157 63 56 210 231 210 250 0 10 -25 13
-112 13 -117 0 -677 14 -1040 26 -115 3 -208 10 -208 14 0 4 26 35 57 70 l58
62 630 -21 c820 -28 730 -30 762 23 l26 43 151 6 c83 3 196 13 251 21 55 8
120 17 145 19 44 6 44 5 23 -11 -61 -49 -216 -263 -334 -462 -45 -77 -86 -140
-91 -140 -29 0 42 155 162 350 46 74 89 147 96 161 8 14 23 34 34 44 30 27 24
33 -22 23 -24 -5 -50 -9 -58 -10 -8 0 -24 -7 -35 -15 -19 -13 -19 -14 9 -11
19 2 30 -2 33 -12 4 -13 3 -13 -6 0 -9 13 -12 12 -25 -5 -9 -11 -16 -17 -16
-12 0 4 -15 0 -32 -9 -18 -10 -42 -19 -53 -20 -19 -2 -117 -43 -104 -44 3 0
-15 -21 -39 -47 -58 -60 -189 -261 -247 -378 -51 -104 -58 -125 -46 -144 10
-16 34 -9 206 64 142 60 142 60 175 25 l28 -30 179 0 c294 0 1057 19 1228 30
446 30 667 94 810 234 l60 59 225 -5 c155 -3 232 -9 245 -17 18 -11 16 -12
-15 -7 -27 4 -31 3 -18 -5 17 -9 17 -11 1 -36 -17 -25 -17 -26 7 -18 14 4 34
14 45 21 11 8 24 14 30 14 5 0 3 -5 -5 -11 -12 -9 -11 -10 7 -6 28 6 43 -11
46 -52 1 -22 7 -31 20 -31 24 0 60 38 53 57 -6 15 16 0 101 -66 l31 -24 -24
-38 c-95 -151 -192 -359 -289 -619 -108 -290 -261 -779 -300 -955 -9 -44 -21
-87 -27 -95 -6 -11 -7 -8 -2 10 l7 25 -19 -23 c-16 -19 -30 -23 -86 -25 -38
-2 -68 1 -68 5 0 4 -4 8 -10 8 -5 0 -10 -8 -10 -17 0 -15 -2 -16 -10 -3 -9 13
-10 13 -10 0 0 -9 -3 -11 -8 -5 -10 14 -44 15 -39 1 3 -6 -4 -12 -15 -12 -14
0 -18 5 -14 19 3 11 -2 21 -12 25 -17 6 -48 32 -38 32 13 0 56 -24 56 -32 0
-4 5 -8 11 -8 7 0 5 10 -5 25 -12 18 -13 24 -4 23 7 -2 16 -7 20 -13 4 -6 8
-2 8 8 0 14 3 15 19 5 11 -7 22 -21 25 -31 3 -13 9 -16 18 -11 7 5 16 9 20 9
3 0 10 4 15 8 4 5 -3 7 -16 5 -14 -2 -26 3 -29 11 -3 10 2 11 18 6 15 -5 20
-4 16 3 -4 7 8 14 29 18 37 7 49 24 15 21 -11 -1 -20 -5 -20 -9 0 -4 -7 -8
-16 -8 -8 0 -12 4 -9 10 3 5 3 10 -2 10 -4 0 -8 11 -8 24 0 13 3 22 7 20 3 -2
8 3 10 13 3 15 4 16 20 0 25 -26 31 -20 11 10 -10 15 -12 24 -5 19 10 -6 11
-2 7 17 -5 20 -2 28 15 37 11 6 26 9 33 6 8 -3 8 -5 -2 -5 -11 -1 -11 -4 -1
-16 19 -23 28 -18 24 14 -3 24 1 31 19 34 22 4 22 4 0 6 -16 1 -20 6 -16 21 6
23 19 26 27 8 3 -7 4 -4 3 7 -2 12 -10 19 -20 19 -18 -2 -24 12 -8 18 5 2 13
15 16 31 6 23 4 27 -16 28 -18 1 -19 3 -6 6 9 2 15 9 11 14 -3 5 -9 7 -14 4
-5 -3 8 30 28 74 26 55 39 74 43 63 3 -10 -1 -22 -10 -29 -9 -7 -11 -13 -6
-13 6 0 4 -4 -2 -8 -10 -6 -10 -15 -1 -40 14 -36 29 -44 20 -10 -3 11 -1 19 4
16 5 -3 17 3 27 14 9 10 12 18 5 18 -6 0 -1 8 10 19 31 26 27 35 -4 14 -27
-17 -27 -17 -15 5 10 18 8 23 -9 34 -11 7 -20 16 -20 21 0 4 3 6 8 4 4 -3 8 9
8 26 1 16 9 36 17 42 9 7 14 15 11 18 -7 6 36 127 45 127 13 0 9 58 -4 64 -8
3 -15 13 -15 23 0 14 2 15 9 5 4 -7 25 -15 47 -17 31 -3 35 -1 20 7 -15 8 -16
12 -5 19 11 7 11 9 -3 9 -21 0 -32 16 -17 26 8 5 9 3 4 -5 -5 -9 -2 -12 11 -9
26 5 15 23 -13 23 -13 -1 -23 3 -23 7 0 11 -23 6 -33 -7 -5 -6 -7 -1 -5 10 4
20 14 22 56 9 13 -3 22 -3 21 2 -4 22 2 33 16 28 11 -5 13 -2 9 10 -3 9 -10
16 -14 16 -5 0 -6 9 -3 20 4 16 2 19 -12 13 -13 -4 -16 -3 -11 6 4 6 15 11 24
10 33 -3 42 1 41 19 0 10 -3 12 -6 4 -2 -6 -9 -10 -14 -6 -15 9 -10 22 9 28
10 4 19 13 19 21 0 8 -4 12 -9 9 -11 -7 -10 3 2 26 9 16 8 18 -5 14 -11 -5
-14 -2 -8 12 4 11 3 15 -5 10 -6 -3 -13 -2 -17 4 -3 5 -2 10 3 10 5 0 12 11
14 25 4 19 1 25 -13 25 -11 0 -19 4 -19 9 0 5 9 7 20 4 16 -4 19 -2 13 13 -5
13 -3 16 10 11 9 -3 17 -2 17 3 0 6 -5 10 -11 10 -5 0 -7 5 -4 10 3 6 -2 10
-12 11 -14 0 -15 2 -3 6 8 3 19 13 24 22 8 13 10 13 17 -4 7 -19 8 -19 8 1 1
12 8 25 17 28 23 9 24 8 24 -11 0 -15 -2 -16 -10 -3 -8 12 -10 9 -10 -11 0
-19 6 -28 20 -32 17 -4 20 -2 15 13 -4 13 1 20 22 27 26 9 27 10 5 15 -12 4
-20 2 -16 -3 3 -5 0 -9 -5 -9 -6 0 -11 7 -11 16 0 11 6 15 20 11 24 -6 27 8 3
17 -14 6 -15 9 -4 15 10 6 7 13 -11 27 -14 11 -23 24 -21 30 7 22 -22 34 -58
23 -19 -5 -52 -12 -74 -13 -22 -2 -69 -9 -104 -16 -36 -6 -81 -13 -100 -15
-20 -2 -63 -7 -96 -10 -33 -3 -89 -10 -125 -15 -129 -18 -520 -50 -755 -61
-137 -7 -542 -13 -945 -13 -661 -1 -708 0 -753 17 -26 10 -53 28 -61 39 -14
20 -15 20 -45 -11 -17 -18 -35 -29 -40 -26 -5 3 -12 1 -15 -4 -3 -5 -16 -7
-29 -4 -16 3 -18 2 -9 -5 10 -7 2 -11 -29 -16 -23 -4 -39 -9 -36 -13 3 -3 -1
-12 -9 -21 -11 -11 -18 -12 -27 -3 -17 17 -31 13 -17 -4 9 -11 9 -15 1 -15 -6
0 -14 7 -17 15 -8 20 -24 19 -24 -1 0 -9 -5 -12 -12 -8 -6 4 -8 3 -5 -3 4 -6
-5 -14 -21 -18 -15 -4 -22 -9 -15 -12 6 -2 25 3 42 12 18 9 31 11 31 5 0 -5
-4 -10 -10 -10 -14 0 -12 -44 2 -58 10 -10 10 -15 -2 -22 -10 -6 -11 -10 -3
-10 7 0 10 -6 7 -14 -3 -7 2 -16 10 -19 9 -4 16 -12 16 -19 0 -10 -2 -10 -9 0
-6 10 -13 7 -27 -13 -22 -29 -54 -26 -54 5 0 11 -5 22 -10 25 -7 4 -9 -2 -4
-19 5 -20 2 -26 -10 -26 -9 0 -16 -5 -16 -11 0 -5 4 -8 9 -4 6 3 15 -3 20 -14
8 -15 7 -18 -6 -17 -10 0 -19 -10 -24 -28 -10 -34 -8 -39 13 -31 10 4 14 14
11 26 -4 13 0 19 11 19 11 0 16 9 16 26 0 26 1 26 25 10 31 -20 35 -20 35 2 0
14 2 15 10 2 7 -11 5 -19 -7 -27 -15 -12 -15 -13 3 -13 16 0 16 -2 4 -10 -10
-6 -20 -4 -31 6 -19 17 -29 18 -29 3 0 -5 4 -7 10 -4 6 3 10 1 10 -4 0 -6 -4
-11 -10 -11 -5 0 -10 -5 -10 -11 0 -8 5 -7 16 2 13 10 17 10 24 0 6 -11 8 -11
12 -1 3 9 13 11 33 6 16 -4 24 -10 18 -14 -12 -8 -13 -42 -1 -42 5 0 6 -9 3
-20 -3 -11 -2 -20 3 -20 6 0 13 -11 16 -25 4 -14 11 -25 17 -25 6 0 8 4 4 9
-3 5 -1 12 5 16 5 3 10 -1 10 -9 0 -9 6 -16 13 -16 6 0 4 -5 -5 -11 -10 -5
-18 -16 -18 -24 0 -7 -6 -16 -12 -19 -7 -4 -3 -4 10 -2 19 4 21 2 11 -10 -9
-11 -8 -14 9 -14 24 0 38 30 20 42 -22 14 -3 9 31 -8 22 -11 30 -21 26 -32 -3
-8 0 -19 7 -24 10 -6 8 -8 -4 -8 -15 0 -16 -4 -6 -25 7 -17 14 -21 19 -14 4 8
9 4 14 -10 4 -13 4 -25 1 -28 -3 -4 -6 -1 -6 5 0 7 -4 12 -10 12 -6 0 -5 -10
2 -25 14 -32 28 -32 28 -1 0 28 15 42 26 24 4 -6 2 -14 -4 -16 -17 -5 -15 -32
2 -32 8 0 16 6 19 13 2 6 3 5 2 -3 -2 -16 8 -28 33 -44 12 -7 12 -4 2 14 -13
24 -3 22 32 -7 11 -10 18 -11 23 -4 3 6 1 11 -4 11 -6 0 -12 10 -12 23 -1 16
-3 17 -6 5 -3 -14 -8 -15 -28 -6 -25 11 -24 41 1 31 10 -4 12 0 8 11 -7 18
-29 21 -39 6 -9 -14 -25 -2 -24 18 0 10 3 12 6 5 3 -10 9 -9 21 3 10 10 18 12
20 6 2 -6 9 -9 17 -6 7 3 16 0 21 -7 4 -8 3 -10 -4 -5 -14 8 -15 -3 -4 -22 6
-9 13 -7 30 8 12 11 25 20 29 19 24 -4 43 2 37 12 -4 7 1 10 12 7 23 -4 31
-37 13 -49 -7 -4 -10 -12 -5 -16 4 -4 13 0 20 10 7 9 18 17 25 17 9 0 9 5 0
21 -8 15 -8 19 0 15 6 -4 11 -2 11 3 0 6 5 11 11 11 8 0 8 -4 0 -14 -9 -10 -8
-15 4 -20 8 -3 15 -12 15 -20 0 -8 4 -17 9 -20 5 -4 7 4 3 16 -3 14 -2 19 6
14 7 -4 12 -1 12 10 0 13 -3 14 -15 4 -12 -10 -15 -10 -15 3 0 11 9 15 30 15
17 -1 33 2 37 5 3 4 13 1 22 -7 14 -13 19 -13 35 0 18 12 18 14 3 14 -15 0
-16 2 -5 14 7 8 15 10 16 5 2 -5 10 -9 17 -9 7 0 16 -6 18 -12 4 -9 6 -9 6 2
1 10 6 7 17 -9 13 -18 18 -20 25 -10 5 8 9 19 9 24 0 6 -4 3 -10 -5 -5 -8 -12
-11 -16 -8 -3 4 1 14 10 23 10 10 16 12 16 4 0 -9 4 -8 15 1 15 12 22 0 8 -14
-11 -10 -12 -37 -2 -30 5 3 7 8 5 12 -2 4 2 13 10 19 8 8 15 9 19 3 4 -6 11
-7 17 -4 6 4 14 0 19 -7 5 -8 3 -16 -4 -21 -6 -3 7 -5 28 -2 49 6 46 5 125 4
62 -1 154 2 540 16 91 3 177 5 191 5 15 -1 29 5 33 14 3 8 11 15 18 15 9 0 8
-3 -2 -10 -13 -8 -12 -10 3 -10 9 0 17 -4 17 -10 0 -5 -17 -10 -37 -10 -21 0
-175 -7 -343 -15 -168 -8 -363 -17 -435 -20 -270 -11 -283 -13 -309 -49 -23
-31 -76 -176 -76 -209 0 -9 -9 -26 -19 -36 -19 -19 -19 -19 1 -25 12 -2 89 -3
172 -1 451 14 715 14 710 1 -3 -7 -10 -13 -17 -13 -151 -9 -793 -23 -822 -19
-22 3 -45 3 -51 -2 -16 -10 -64 -204 -64 -257 0 -57 19 -70 125 -85 80 -11
1105 -14 1308 -4 53 2 97 1 97 -4 0 -5 -6 -9 -12 -9 -7 0 -74 -4 -148 -8 -104
-6 -1326 -17 -1710 -16 -58 0 -66 -2 -67 -19 -1 -13 3 -17 13 -13 8 3 14 1 14
-5 0 -6 8 -9 18 -7 9 1 32 -4 51 -11 18 -8 44 -14 57 -14 13 0 24 -5 24 -11 0
-6 10 -9 23 -8 12 1 42 -1 67 -5 55 -9 145 -15 223 -16 31 0 57 -3 57 -7 0 -5
-62 -5 -137 -2 -76 4 -201 10 -278 13 -554 24 -805 37 -840 41 -22 3 -148 12
-280 20 -318 20 -586 41 -830 66 -110 11 -263 26 -340 34 -77 8 -237 26 -355
40 -118 15 -255 30 -305 35 -344 33 -823 127 -1043 204 l-42 15 19 -37 c31
-61 130 -190 150 -197 12 -3 29 -31 46 -73 85 -214 225 -399 382 -505 34 -23
63 -47 63 -53 0 -18 43 -52 93 -73 84 -36 313 -75 587 -101 63 -5 141 -15 173
-20 138 -24 178 -31 272 -46 55 -10 120 -20 145 -23 25 -4 50 -10 56 -13 6 -4
32 -8 60 -9 27 -1 54 -5 59 -9 9 -7 62 -16 145 -25 20 -2 48 -9 64 -14 15 -6
54 -11 87 -11 33 0 70 -5 81 -11 12 -7 51 -14 87 -16 36 -2 100 -9 141 -14
150 -21 454 -38 487 -27 12 4 25 3 28 -2 4 -6 32 -10 64 -10 32 0 104 -4 162
-9 57 -6 154 -12 214 -15 225 -11 345 -19 345 -25 0 -3 26 -6 57 -7 157 -1
263 -8 263 -16 0 -5 5 -6 10 -3 6 4 69 1 141 -5 72 -6 172 -12 222 -12 51 0
96 -3 100 -5 11 -6 82 -11 247 -17 74 -3 203 -10 285 -16 83 -5 184 -12 225
-15 41 -3 120 -9 175 -14 55 -5 107 -9 115 -10 39 -3 253 -30 278 -35 15 -4
52 -9 83 -11 31 -3 78 -12 105 -21 325 -102 534 -134 889 -134 304 0 554 33
665 88 47 23 55 31 55 55 -1 23 15 42 88 105 126 109 224 244 319 437 22 44
46 92 54 107 8 14 14 34 14 43 0 9 4 14 9 11 5 -3 19 3 32 13 13 10 30 16 37
14 7 -3 10 1 7 9 -3 8 2 14 14 15 10 1 49 16 85 33 37 17 71 28 76 25 6 -4 10
-2 10 3 0 6 19 17 43 27 23 9 67 28 97 42 30 14 79 36 108 49 29 13 57 24 62
24 8 0 60 22 145 60 71 32 139 60 148 60 5 0 28 9 51 19 23 10 68 27 101 36
33 10 69 21 80 26 36 14 174 29 268 29 51 0 133 5 182 11 50 7 104 13 120 14
17 2 37 5 45 9 8 3 37 10 65 16 27 6 55 16 62 22 12 10 33 16 118 33 23 5 103
38 124 51 1 2 0 8 -4 14 -5 8 -11 8 -21 -1 -11 -9 -14 -7 -14 11 0 20 -4 22
-31 16 -19 -3 -41 0 -59 9 -16 8 -39 15 -52 15 -58 -1 -126 16 -146 37 -12 11
-46 18 -55 11 -6 -6 -35 27 -30 35 2 4 -6 11 -19 16 -21 9 -20 10 10 10 21 1
31 5 26 12 -3 6 -15 8 -26 6 -17 -5 -19 -1 -16 31 2 28 -3 44 -21 64 -22 26
-25 26 -37 10 -8 -10 -13 -12 -14 -4 0 6 -7 12 -15 12 -8 0 -15 9 -15 20 0 22
-15 27 -24 8 -5 -10 -7 -10 -12 0 -3 6 -12 12 -19 12 -7 0 -15 7 -19 15 -3 8
-12 12 -20 9 -18 -7 -154 14 -160 25 -3 4 -37 8 -77 9 -39 1 -103 9 -143 17
-39 8 -116 16 -170 16 -58 1 -92 5 -84 10 7 5 179 63 381 130 203 67 366 123
364 125 -2 2 -57 -14 -123 -36 -65 -21 -321 -105 -567 -185 -246 -81 -516
-171 -600 -201 -83 -30 -153 -54 -154 -54 -1 0 -2 8 -1 18 0 35 -10 123 -15
129 -3 3 -2 15 3 28 6 15 4 27 -3 34 -7 7 -13 22 -14 34 -1 12 -6 40 -12 62
-7 22 -14 49 -16 60 -9 42 -39 125 -46 125 -11 0 -2 128 17 240 13 79 18 161
18 335 1 211 -1 237 -23 320 -42 161 -108 262 -199 307 -38 18 -64 23 -132 23
-75 -1 -95 -5 -171 -37 -48 -19 -109 -50 -135 -69 -67 -45 -166 -141 -227
-219 -28 -36 -54 -69 -58 -73 -4 -5 -33 12 -65 38 -33 26 -66 52 -74 59 -8 6
-33 17 -55 23 -22 7 -49 19 -59 26 -17 13 -16 16 28 60 25 26 46 50 46 52 0
10 83 85 94 85 6 0 4 5 -4 10 -13 8 -12 10 3 10 10 0 20 7 24 16 5 13 7 13 14
2 6 -9 9 -7 9 10 0 12 5 22 10 22 6 0 10 8 10 17 0 15 -1 15 -17 -1 -10 -9
-54 -52 -99 -95 -44 -43 -91 -93 -105 -112 -46 -66 -48 -67 -88 -58 -20 5
-125 12 -234 16 -109 3 -200 9 -202 13 -3 4 26 68 65 141 38 74 85 182 104
240 54 161 47 224 -31 284 -91 69 -269 110 -457 103 -74 -2 -102 0 -99 8 7 19
147 116 298 207 148 89 332 188 660 357 177 91 230 121 215 120 -3 0 -183 -92
-400 -203z m-6482 -434 c42 -62 75 -123 68 -123 -5 0 -85 120 -105 159 -22 41
-1 21 37 -36z m5707 -93 c-4 -6 34 -11 107 -12 83 -1 101 -3 68 -8 -39 -6 -41
-7 -12 -8 l33 -2 -18 -24 c-10 -14 -27 -27 -37 -30 -16 -4 -17 -7 -6 -20 10
-13 10 -16 -1 -16 -11 0 -11 -2 1 -10 10 -6 -4 -10 -45 -13 -59 -3 -59 -3 15
-5 92 -3 213 -24 260 -46 31 -14 32 -15 10 -15 -54 2 -70 -1 -70 -16 0 -12 -5
-13 -27 -3 -38 16 -55 32 -20 19 36 -14 37 -14 37 4 0 25 -43 35 -194 45 -143
10 -265 4 -451 -22 -73 -10 -84 -13 -60 -19 17 -4 46 -14 66 -21 32 -12 35
-16 25 -30 -7 -9 -10 -33 -8 -52 4 -32 6 -34 24 -25 14 7 18 17 14 32 -5 21
-5 21 9 3 8 -11 15 -16 16 -10 0 5 1 25 2 44 2 30 6 36 35 45 17 5 32 14 32
20 0 15 125 12 144 -4 8 -7 19 -10 23 -8 13 8 11 -37 -1 -45 -7 -5 -8 -8 -1
-8 14 0 17 -38 4 -45 -5 -4 -6 -11 -3 -17 5 -7 2 -9 -8 -5 -14 5 -14 0 -2 -46
13 -50 18 -215 7 -245 -5 -11 -7 -11 -14 0 -6 10 -11 10 -20 1 -10 -10 -9 -17
5 -32 10 -11 13 -21 7 -25 -5 -4 -12 -2 -16 4 -12 19 -21 10 -33 -35 -18 -66
-13 -78 8 -20 17 47 18 48 19 18 1 -41 -19 -85 -35 -79 -11 4 -28 -36 -29 -69
0 -26 -30 -37 -112 -42 -99 -6 -149 -23 -68 -22 28 0 71 4 98 8 52 9 66 -3 16
-13 -126 -25 -1077 -60 -1056 -39 4 4 54 5 112 4 93 -2 105 -1 105 14 0 15 -9
17 -70 11 -38 -3 -70 -3 -70 -1 0 2 24 11 53 20 70 21 87 32 64 41 -17 6 -17
8 -1 25 10 11 12 19 6 19 -17 0 -15 67 4 94 10 16 12 26 5 31 -8 4 -8 12 -1
25 5 10 10 29 10 42 0 13 7 34 16 46 14 21 14 22 -7 22 -30 0 -18 10 23 20
l33 8 -37 -1 c-37 -1 -95 -37 -81 -50 3 -4 -2 -9 -11 -13 -9 -3 -16 -17 -16
-30 0 -16 -6 -24 -16 -24 -9 0 -22 -6 -28 -14 -10 -13 -13 -13 -24 0 -11 11
-10 14 3 14 8 0 20 10 26 23 16 35 34 65 53 85 9 11 14 26 11 34 -4 9 4 19 20
26 14 6 25 18 25 26 0 8 11 23 25 34 14 11 25 26 25 33 -1 9 -4 8 -11 -3 -5
-10 -15 -18 -21 -18 -7 0 -7 4 1 14 9 10 8 16 -4 26 -13 11 -18 10 -29 -6 -8
-10 -12 -22 -10 -26 3 -4 -1 -6 -8 -3 -17 6 -29 -3 -51 -37 -9 -16 -25 -40
-34 -55 -10 -15 -12 -24 -5 -20 16 11 17 13 -23 -81 -19 -46 -34 -88 -32 -95
3 -14 -42 -22 -54 -10 -6 6 2 39 21 84 35 85 36 90 14 63 -15 -19 -16 -19 -8
1 4 11 7 34 6 50 0 17 1 37 4 45 4 13 6 13 15 0 8 -11 9 -9 4 9 -6 19 -4 23 9
18 9 -4 16 -2 16 4 0 16 -27 21 -48 10 -14 -7 -18 -17 -15 -31 3 -12 0 -20 -6
-20 -7 0 -9 -5 -6 -10 4 -6 1 -17 -5 -25 -8 -9 -8 -15 -2 -15 6 0 12 6 15 13
2 6 8 9 12 5 8 -8 -16 -78 -27 -78 -4 0 -8 -7 -8 -16 0 -8 5 -12 10 -9 6 3 10
1 10 -4 0 -6 -11 -11 -25 -11 l-24 0 19 45 c11 25 15 45 10 45 -6 0 -10 -7
-10 -15 0 -9 -7 -18 -16 -22 -8 -3 -13 -12 -10 -19 3 -8 1 -14 -4 -14 -6 0
-10 -6 -10 -12 0 -7 -7 -25 -14 -40 -9 -17 -11 -30 -5 -34 6 -3 15 8 21 24 9
22 18 29 35 28 15 -1 22 -6 20 -16 -2 -8 -8 -14 -15 -13 -17 4 -34 -34 -27
-58 7 -20 7 -20 21 -2 21 28 17 8 -10 -47 -13 -28 -20 -50 -15 -50 6 0 2 -11
-8 -24 -10 -13 -23 -21 -30 -19 -16 6 -35 -33 -28 -57 4 -14 2 -20 -8 -20 -11
0 -12 10 -7 44 6 39 4 43 -14 42 -14 -1 -22 -11 -29 -36 -10 -39 -27 -63 -27
-38 0 8 5 29 11 47 6 18 9 35 6 38 -3 3 -9 -8 -13 -23 -10 -41 -25 -59 -35
-42 -14 21 -10 41 6 34 8 -3 15 -1 15 4 0 6 -5 10 -11 10 -10 0 -8 20 7 73 4
12 0 17 -13 17 -11 0 -25 6 -32 13 -10 10 -10 7 -2 -15 6 -16 8 -28 5 -28 -5
0 -45 19 -52 25 -1 1 3 14 9 29 10 20 10 29 1 38 -9 9 -12 6 -12 -13 0 -27 -5
-36 -39 -64 l-24 -20 7 25 c7 24 6 24 -8 6 -16 -20 -16 -20 -16 1 0 11 10 31
23 44 39 42 52 65 19 35 -18 -17 -32 -24 -32 -17 0 7 10 22 23 33 18 17 17 16
-11 -2 -26 -18 -31 -25 -21 -36 9 -11 8 -14 -5 -14 -20 0 -49 -44 -51 -76 0
-19 4 -24 23 -24 17 0 22 -4 19 -14 -7 -18 17 -28 32 -13 8 8 11 7 11 -5 0 -9
5 -18 11 -20 12 -4 1 -38 -12 -38 -4 0 -5 7 -2 17 5 11 3 14 -6 9 -7 -5 -11
-16 -8 -25 3 -14 -1 -17 -20 -13 -22 4 -23 6 -8 22 17 19 20 40 5 40 -6 0 -24
-14 -40 -30 -17 -17 -30 -26 -30 -20 0 5 9 18 20 27 21 18 27 52 10 54 -5 1
-16 2 -22 3 -20 3 -11 22 49 121 205 331 395 470 789 579 219 61 534 117 649
116 28 0 45 3 38 7 -6 5 27 6 74 4 68 -2 84 0 78 10 -6 8 -4 11 6 7 8 -3 23
-2 34 3 28 11 37 11 30 -1z m512 -67 c40 -19 78 -42 85 -50 12 -15 14 -78 3
-114 -10 -29 -28 -23 -21 7 9 36 -3 94 -20 94 -8 0 -14 5 -14 11 0 5 6 7 13 3
7 -4 9 -3 4 2 -5 5 -23 14 -40 20 -18 7 -31 16 -30 22 1 5 -26 19 -60 31 -39
13 -49 19 -27 15 19 -3 68 -21 107 -41z m-399 -120 c-10 -2 -26 -2 -35 0 -10
3 -2 5 17 5 19 0 27 -2 18 -5z m75 -10 c-7 -2 -19 -2 -25 0 -7 3 -2 5 12 5 14
0 19 -2 13 -5z m157 -48 c-14 -17 -30 -20 -30 -6 0 5 8 12 18 14 9 3 19 5 21
6 2 0 -2 -6 -9 -14z m67 -95 c-15 -51 -40 -61 -45 -17 -3 28 -17 36 -25 15 -3
-7 -6 1 -6 19 -1 28 2 32 24 30 14 -1 30 -9 36 -17 9 -13 10 -13 6 0 -2 8 1
24 7 35 l11 20 3 -20 c1 -11 -3 -40 -11 -65z m153 43 c-11 -17 -11 -17 -6 0 3
10 6 24 7 30 0 9 2 9 5 0 3 -7 0 -20 -6 -30z m-300 -88 c-19 -7 -46 -13 -60
-13 -17 0 -10 4 20 13 59 17 84 17 40 0z m97 -11 c-3 -3 -12 -4 -19 -1 -8 3
-5 6 6 6 11 1 17 -2 13 -5z m-190 -10 c-3 -3 -12 -4 -19 -1 -8 3 -5 6 6 6 11
1 17 -2 13 -5z m130 0 c-3 -3 -12 -4 -19 -1 -8 3 -5 6 6 6 11 1 17 -2 13 -5z
m214 -31 c-12 -20 -14 -14 -5 12 4 9 9 14 11 11 3 -2 0 -13 -6 -23z m-188 0
c-7 -2 -21 -2 -30 0 -10 3 -4 5 12 5 17 0 24 -2 18 -5z m30 -58 c-16 -41 -46
-66 -60 -51 -4 3 0 6 8 6 9 0 25 24 39 57 13 31 25 52 28 45 2 -7 -4 -33 -15
-57z m-80 38 c-7 -2 -21 -2 -30 0 -10 3 -4 5 12 5 17 0 24 -2 18 -5z m183 -99
c-19 -38 -41 -78 -50 -89 -9 -11 6 21 32 72 26 50 48 90 50 88 2 -2 -12 -34
-32 -71z m-208 -31 c-10 -2 -26 -2 -35 0 -10 3 -2 5 17 5 19 0 27 -2 18 -5z
m62 1 c0 -3 -24 -40 -52 -82 -120 -174 -256 -276 -368 -275 -33 0 -47 -3 -35
-7 30 -11 -215 -39 -435 -50 -370 -18 -1015 -33 -865 -21 77 7 75 7 -49 9
-240 4 -119 15 246 23 392 9 820 25 907 35 41 5 52 4 46 -6 -6 -9 -3 -10 11
-2 11 6 44 15 74 20 31 6 69 13 85 17 24 5 27 4 15 -5 -26 -20 47 -3 109 25
67 31 185 150 251 253 40 63 60 85 60 66z m-107 -21 c-7 -2 -19 -2 -25 0 -7 3
-2 5 12 5 14 0 19 -2 13 -5z m-7 -61 c-36 -71 -243 -258 -263 -239 -2 3 9 13
27 22 40 21 179 153 215 205 32 47 42 52 21 12z m184 -21 c-5 -11 -15 -23 -21
-27 -6 -3 -3 5 6 20 20 30 30 35 15 7z m-1520 -17 c0 -8 -4 -12 -10 -9 -5 3
-10 10 -10 16 0 5 5 9 10 9 6 0 10 -7 10 -16z m-37 -20 c-4 -10 1 -17 16 -21
21 -5 29 -27 13 -37 -5 -3 -19 13 -31 34 -18 33 -20 40 -7 40 10 0 13 -6 9
-16z m-86 -10 c-3 -3 -12 -4 -19 -1 -8 3 -5 6 6 6 11 1 17 -2 13 -5z m23 -9
c0 -8 -4 -15 -10 -15 -5 0 -7 7 -4 15 4 8 8 15 10 15 2 0 4 -7 4 -15z m1590
11 c0 -2 -8 -10 -17 -17 -16 -13 -17 -12 -4 4 13 16 21 21 21 13z m-4749 -23
c13 -16 12 -17 -3 -4 -10 7 -18 15 -18 17 0 8 8 3 21 -13z m3146 -35 c-3 -8
-6 -5 -6 6 -1 11 2 17 5 13 3 -3 4 -12 1 -19z m1563 19 c0 -2 -12 -14 -27 -28
l-28 -24 24 28 c23 25 31 32 31 24z m-60 -51 c0 -2 -8 -10 -17 -17 -16 -13
-17 -12 -4 4 13 16 21 21 21 13z m-1689 -113 c-8 -15 -10 -15 -11 -2 0 17 10
32 18 25 2 -3 -1 -13 -7 -23z m-101 -18 c15 -18 34 -20 24 -2 -6 9 -4 9 8 -1
10 -8 33 -11 62 -8 25 3 46 0 46 -5 0 -5 -62 -8 -147 -7 -114 1 -133 3 -83 8
36 4 61 7 57 8 -10 2 1 22 12 22 5 0 14 -7 21 -15z m-250 -78 l55 -3 -62 -2
c-57 -2 -82 6 -66 22 4 3 9 2 13 -3 3 -5 30 -11 60 -14z m208 6 c-26 -2 -71
-2 -100 0 -29 2 -8 3 47 3 55 0 79 -1 53 -3z m3070 -129 c-3 -14 -5 -12 -10 9
-3 19 -2 25 4 19 6 -6 8 -18 6 -28z m-38 -11 c0 -32 -5 -28 -14 10 -4 19 -3
26 4 22 5 -3 10 -18 10 -32z m88 -11 c3 -31 3 -32 -23 -20 -15 7 -22 14 -16
16 6 2 11 13 11 24 0 32 25 15 28 -20z m32 18 c6 -11 8 -26 4 -32 -5 -8 -10
-5 -15 8 -16 41 -8 59 11 24z m50 -52 c0 -10 -4 -18 -8 -18 -17 0 -29 22 -24
47 5 25 6 25 18 8 8 -10 14 -27 14 -37z m30 6 c0 -13 -4 -24 -10 -24 -5 0 -10
14 -10 31 0 17 4 28 10 24 6 -3 10 -17 10 -31z m40 -37 c0 -15 4 -26 8 -23 5
3 7 20 5 38 -3 25 -2 29 6 18 6 -8 11 -23 11 -32 0 -10 5 -18 11 -18 6 0 8 9
4 23 -6 21 -6 21 9 3 9 -11 16 -32 16 -48 0 -15 4 -28 8 -28 5 0 7 15 5 33 -3
24 -2 29 6 17 6 -8 11 -24 12 -35 l0 -20 9 20 c7 18 9 18 19 -9 19 -47 11 -62
-19 -36 -30 26 -41 9 -14 -22 l19 -22 -27 20 c-15 10 -28 22 -28 27 0 4 -6 7
-14 7 -8 0 -18 5 -22 11 -4 8 0 9 15 4 27 -8 27 3 -1 27 -13 11 -24 15 -26 9
-2 -6 -14 1 -26 14 -17 18 -21 33 -18 56 4 30 6 31 18 14 8 -10 14 -32 14 -48z
m160 -76 c0 -5 3 -16 6 -25 3 -9 2 -16 -4 -16 -5 0 -12 11 -14 25 -3 14 -1 25
3 25 5 0 9 -4 9 -9z m-4380 -35 c0 -2 -7 -6 -15 -10 -8 -3 -15 -1 -15 4 0 6 7
10 15 10 8 0 15 -2 15 -4z m4420 -43 c0 -13 -4 -23 -10 -23 -5 0 -10 4 -10 9
0 5 -7 17 -16 25 -14 15 -14 16 0 16 9 0 16 6 16 13 0 22 20 -17 20 -40z m23
-3 c3 -11 1 -23 -4 -26 -5 -3 -9 6 -9 20 0 31 6 34 13 6z m41 -56 c4 -15 4
-29 1 -32 -8 -8 -25 19 -25 41 0 26 17 20 24 -9z m-1281 -29 c-3 -9 -8 -14
-10 -11 -3 3 -2 9 2 15 9 16 15 13 8 -4z m1316 -38 c1 -5 -3 -5 -9 -2 -5 3
-10 16 -9 28 0 21 1 21 9 2 5 -11 9 -24 9 -28z m-1279 23 c0 -5 -2 -10 -4 -10
-3 0 -8 5 -11 10 -3 6 -1 10 4 10 6 0 11 -4 11 -10z m1250 -35 c0 -8 -2 -15
-4 -15 -2 0 -6 7 -10 15 -3 8 -1 15 4 15 6 0 10 -7 10 -15z m52 -51 c-5 -9 -8
-1 -9 23 -1 33 0 35 8 15 5 -13 5 -30 1 -38z m-485 -10 c64 -22 109 -52 167
-112 107 -111 171 -230 221 -414 21 -75 27 -123 31 -253 3 -95 0 -191 -6 -235
-25 -164 -80 -341 -146 -473 -53 -104 -186 -270 -202 -252 -5 6 -16 31 -26 57
-9 26 -27 62 -39 80 -38 58 -168 107 -203 77 -9 -8 -43 -68 -75 -134 -81 -168
-112 -214 -141 -211 -32 4 -85 33 -135 73 -25 20 -47 32 -54 27 -8 -4 -9 -3
-5 5 9 13 -12 43 -24 36 -5 -3 -19 9 -31 27 -19 27 -20 30 -4 18 18 -15 18
-14 1 12 -18 28 -33 39 -21 16 4 -7 -1 -4 -9 7 -9 11 -14 25 -11 33 2 7 0 10
-5 7 -14 -8 -57 92 -88 205 -24 87 -26 110 -25 275 1 115 7 216 17 280 18 110
53 245 67 260 5 5 9 16 9 24 0 27 88 196 136 262 26 35 81 100 123 143 l76 80
-60 -49 c-33 -27 -51 -39 -41 -27 36 41 125 104 137 96 8 -4 9 -3 5 5 -9 14
82 58 146 70 58 11 159 4 215 -15z m-1000 -16 c-3 -7 -5 -2 -5 12 0 14 2 19 5
13 2 -7 2 -19 0 -25z m1522 -21 c1 -5 -3 -5 -9 -2 -5 3 -10 16 -9 28 0 21 1
21 9 2 5 -11 9 -24 9 -28z m-1468 6 c-12 -20 -14 -14 -5 12 4 9 9 14 11 11 3
-2 0 -13 -6 -23z m-78 10 c-7 -2 -13 -12 -13 -20 0 -9 -3 -14 -6 -10 -10 10 4
37 18 36 10 0 10 -2 1 -6z m1507 -3 c0 -5 -2 -10 -4 -10 -3 0 -8 5 -11 10 -3
6 -1 10 4 10 6 0 11 -4 11 -10z m-1340 -14 c0 -3 -4 -8 -10 -11 -5 -3 -10 -1
-10 4 0 6 5 11 10 11 6 0 10 -2 10 -4z m-280 -28 c0 -6 -6 -5 -15 2 -8 7 -15
14 -15 16 0 2 7 1 15 -2 8 -4 15 -11 15 -16z m1672 -20 c-6 -6 -12 -4 -16 7
-3 9 -2 13 4 10 6 -3 10 0 11 7 0 10 2 10 6 0 3 -8 1 -18 -5 -24z m-1408 -60
c-8 -12 -24 1 -24 18 0 8 -5 14 -11 14 -5 0 -7 5 -3 11 4 8 13 4 25 -12 9 -13
15 -27 13 -31z m-83 5 c13 -17 13 -17 -6 -3 -11 8 -22 16 -24 17 -2 2 0 3 6 3
6 0 17 -8 24 -17z m-1067 -18 c-4 -8 -12 -15 -20 -15 -20 0 -17 18 4 23 9 3
18 5 19 6 1 0 0 -6 -3 -14z m120 -11 c3 -8 2 -12 -4 -9 -6 3 -10 10 -10 16 0
14 7 11 14 -7z m-183 -27 c17 5 18 3 9 -21 -8 -23 -7 -28 13 -36 16 -6 0 -9
-58 -10 -44 0 -91 -3 -104 -7 -17 -4 -22 -3 -17 5 4 7 25 12 46 12 34 0 43 5
62 35 13 19 24 30 26 26 2 -5 12 -7 23 -4z m-1266 -21 c0 -15 -4 -21 -9 -16
-5 5 -6 16 -3 24 9 22 12 20 12 -8z m1565 14 c0 -5 -2 -10 -4 -10 -3 0 -8 5
-11 10 -3 6 -1 10 4 10 6 0 11 -4 11 -10z m465 0 c-3 -5 -12 -10 -18 -10 -7 0
-6 4 3 10 19 12 23 12 15 0z m-655 -10 c0 -5 -5 -10 -11 -10 -5 0 -7 5 -4 10
3 6 8 10 11 10 2 0 4 -4 4 -10z m85 0 c-3 -5 -14 -10 -23 -10 -15 0 -15 2 -2
10 20 13 33 13 25 0z m126 -4 c-10 -12 -7 -15 21 -19 28 -3 27 -4 -11 -5 -43
-2 -44 -2 -26 18 21 23 34 28 16 6z m249 -6 c0 -6 -28 -9 -67 -8 l-68 1 65 7
c36 4 66 7 68 8 1 1 2 -2 2 -8z m73 3 c-13 -2 -33 -2 -45 0 -13 2 -3 4 22 4
25 0 35 -2 23 -4z m-1672 -26 c-10 -9 -11 -8 -5 6 3 10 9 15 12 12 3 -3 0 -11
-7 -18z m939 13 c0 -5 -4 -10 -10 -10 -5 0 -10 5 -10 10 0 6 5 10 10 10 6 0
10 -4 10 -10z m240 -5 c10 -12 10 -15 -3 -15 -8 0 -17 7 -21 15 -3 8 -2 15 3
15 5 0 14 -7 21 -15z m276 2 c4 -4 -5 -7 -19 -7 -15 0 -27 4 -27 8 0 10 36 9
46 -1z m-1951 -15 c19 -11 18 -11 -5 -8 -14 3 -33 5 -42 5 -10 1 -18 5 -18 9
0 11 42 8 65 -6z m429 2 c3 -8 2 -12 -4 -9 -6 3 -10 10 -10 16 0 14 7 11 14
-7z m143 10 c-3 -3 -12 -4 -19 -1 -8 3 -5 6 6 6 11 1 17 -2 13 -5z m1173 -4
c11 -7 6 -10 -20 -10 -26 0 -31 3 -20 10 8 5 17 10 20 10 3 0 12 -5 20 -10z
m-133 -6 c-3 -3 -12 -4 -19 -1 -8 3 -5 6 6 6 11 1 17 -2 13 -5z m640 -9 c0 -8
-4 -15 -9 -15 -10 0 -11 14 -1 23 9 10 10 9 10 -8z m-1672 -5 c-3 -5 -12 -7
-20 -3 -21 7 -19 13 6 13 11 0 18 -4 14 -10z m1620 0 c15 -6 5 -9 -35 -10 -30
-1 -62 -3 -70 -4 -40 -8 -264 -17 -258 -11 4 4 33 9 65 11 32 3 87 8 123 13
86 11 150 12 175 1z m202 -12 c-3 -8 -6 -5 -6 6 -1 11 2 17 5 13 3 -3 4 -12 1
-19z m-46 -11 c-10 -9 -11 -8 -5 6 3 10 9 15 12 12 3 -3 0 -11 -7 -18z m-541
-3 c-34 -7 -110 -9 -110 -2 0 5 28 7 63 7 34 -1 55 -3 47 -5z m570 -4 c0 -5
-5 -10 -11 -10 -5 0 -7 5 -4 10 3 6 8 10 11 10 2 0 4 -4 4 -10z m-841 -14
c-94 -7 -162 -16 -171 -23 -8 -7 -18 -9 -23 -5 -4 4 -2 -3 4 -15 9 -18 9 -22
-2 -17 -8 3 -17 -2 -21 -12 -4 -12 -2 -15 9 -10 21 8 19 -11 -2 -23 -14 -8
-15 -10 -3 -11 13 0 13 -1 0 -10 -8 -5 -10 -10 -5 -10 6 0 4 -4 -4 -9 -7 -5
-15 -19 -17 -32 -12 -96 -101 -375 -132 -417 -14 -18 -26 -31 -28 -29 -2 1 17
70 43 152 25 83 46 158 46 168 1 9 4 17 8 17 4 0 7 10 7 23 1 12 17 76 35 142
l33 120 90 6 c49 3 134 5 189 6 91 0 85 -1 -56 -11z m-313 -15 c-3 -4 -27 -7
-53 -6 -26 1 -36 1 -21 -2 14 -2 32 -11 40 -20 11 -14 10 -15 -7 -10 -26 8
-41 -2 -54 -36 -6 -15 -17 -27 -26 -27 -18 0 -20 16 -2 24 6 3 3 5 -8 3 -12
-1 -21 -11 -23 -25 -5 -31 -18 -28 -18 5 1 14 -5 28 -12 31 -9 3 -12 -3 -10
-14 2 -11 -2 -18 -9 -16 -7 1 -13 -2 -13 -7 0 -5 6 -12 13 -14 9 -4 9 -6 -1
-6 -8 -1 -16 8 -19 19 -3 11 -9 20 -13 20 -5 0 -17 3 -27 6 -17 6 -17 6 0 -7
16 -13 14 -14 -15 -16 -26 -2 -30 0 -18 8 11 8 7 9 -15 4 -16 -4 -37 -8 -45
-8 -8 0 -22 -6 -32 -14 -11 -10 -18 -11 -23 -3 -4 6 -14 9 -22 6 -8 -3 -11 -1
-8 4 10 16 -17 12 -36 -5 -15 -14 -18 -14 -33 0 -14 14 -16 14 -16 1 0 -12 -6
-13 -30 -6 -16 5 -30 5 -30 1 0 -4 -21 -7 -47 -6 -66 3 -66 3 -59 21 5 13 1
15 -21 10 -16 -4 -23 -3 -17 1 15 11 25 43 14 43 -6 0 -10 -5 -10 -11 0 -5 -4
-8 -9 -4 -5 3 -13 -4 -16 -16 -4 -11 -9 -19 -11 -16 -10 10 10 39 36 52 45 23
739 58 726 36z m1407 -6 c-3 -9 -8 -14 -10 -11 -3 3 -2 9 2 15 9 16 15 13 8
-4z m-548 -1 c-109 -14 -118 -16 -104 -25 9 -5 10 -9 2 -9 -6 0 -15 5 -18 10
-8 14 -125 13 -125 -1 0 -5 -4 -7 -10 -4 -5 3 -10 1 -10 -4 0 -6 7 -11 15 -11
8 0 15 5 15 12 0 6 9 3 20 -7 27 -25 25 -38 -9 -58 l-29 -17 -22 45 c-19 39
-26 45 -53 45 -16 0 -28 3 -24 6 3 3 59 9 124 13 130 7 276 10 228 5z m-485
-24 c0 -5 -9 -10 -20 -10 -11 0 -20 -6 -21 -12 0 -10 -2 -10 -6 0 -5 13 -43
16 -80 6 -29 -8 -35 -38 -13 -62 21 -22 10 -42 -22 -42 -10 0 -18 -6 -18 -12
0 -9 -4 -8 -11 2 -7 11 -9 5 -6 -22 5 -41 -9 -53 -16 -15 -4 19 -4 18 -6 -5
-1 -22 3 -28 20 -28 14 0 19 5 16 15 -7 17 9 30 18 14 4 -5 13 -8 21 -5 7 3
16 1 19 -4 4 -6 -3 -10 -14 -10 -14 0 -21 -6 -21 -19 0 -15 -7 -19 -34 -18
-21 1 -32 5 -29 11 4 8 2 8 -6 0 -6 -6 -15 -24 -20 -41 -8 -28 -6 -34 19 -57
26 -22 27 -28 17 -50 -7 -16 -13 -20 -15 -12 -8 38 -62 17 -61 -24 0 -10 2
-11 6 -2 2 6 14 11 26 11 17 -1 18 -2 5 -6 -21 -5 -24 -29 -5 -36 7 -3 5 -6
-5 -6 -10 -1 -18 4 -18 11 0 6 -3 8 -6 5 -4 -4 -1 -13 6 -22 10 -13 9 -15 -8
-15 -32 0 -36 -28 -4 -33 24 -4 23 -4 -6 -6 -27 -1 -32 2 -28 17 12 38 116
409 124 442 l8 35 95 6 c52 3 95 6 97 7 1 1 2 -2 2 -8z m119 5 c-9 -8 -100
-11 -105 -3 -3 4 21 8 52 8 32 0 55 -2 53 -5z m671 -5 c0 -5 -5 -10 -11 -10
-5 0 -7 5 -4 10 3 6 8 10 11 10 2 0 4 -4 4 -10z m-490 -12 c0 -9 3 -9 12 0 16
16 38 15 38 -2 0 -8 6 -17 13 -19 6 -3 -2 -6 -19 -6 -28 -1 -31 -4 -26 -26 2
-14 0 -25 -5 -25 -6 0 -10 14 -11 31 0 17 -6 37 -13 45 -8 10 -8 14 0 14 6 0
11 -5 11 -12z m375 -6 c-3 -3 -11 0 -18 7 -9 10 -8 11 6 5 10 -3 15 -9 12 -12z
m195 14 c0 -2 -7 -7 -16 -10 -8 -3 -12 -2 -9 4 6 10 25 14 25 6z m-974 -42
c-9 -9 -20 -13 -24 -9 -4 3 2 13 12 21 25 18 33 10 12 -12z m748 2 c-9 -7 -14
-18 -10 -24 4 -7 1 -12 -9 -12 -15 0 -14 3 1 29 10 17 22 27 26 24 5 -2 1 -11
-8 -17z m175 -16 c0 -10 -3 -8 -9 5 -12 27 -12 43 0 25 5 -8 9 -22 9 -30z
m-369 21 c0 -6 -9 -9 -20 -8 -11 1 -20 5 -20 9 0 4 9 8 20 8 11 0 20 -4 20 -9z
m-510 -5 c0 -3 -4 -8 -10 -11 -5 -3 -10 -1 -10 4 0 6 5 11 10 11 6 0 10 -2 10
-4z m456 -19 c3 -3 -4 -8 -15 -12 -13 -4 -18 -12 -15 -23 5 -15 4 -15 -5 -2
-9 12 -13 12 -19 2 -6 -9 -9 -3 -10 17 -1 28 2 30 29 27 16 -2 32 -6 35 -9z
m260 -62 c-21 -22 -20 -36 2 -28 14 5 13 3 -3 -10 l-20 -16 20 -1 c17 0 17 -2
5 -10 -12 -8 -12 -10 -1 -10 8 0 11 -3 7 -7 -4 -4 -16 3 -26 17 -18 23 -20 23
-21 5 0 -11 -3 -15 -5 -8 -3 7 -1 21 5 31 8 16 7 21 -6 27 -12 4 -26 -4 -46
-27 -28 -33 -28 -33 3 17 29 48 54 64 56 38 3 -27 6 -27 16 -3 6 14 11 34 10
45 -1 11 4 6 10 -12 9 -26 8 -35 -6 -48z m-246 41 c0 -2 -7 -7 -16 -10 -8 -3
-12 -2 -9 4 6 10 25 14 25 6z m-100 -27 c0 -5 7 -9 15 -9 18 0 20 -16 3 -26
-7 -4 -8 -3 -4 4 4 7 2 12 -4 12 -12 0 -40 24 -40 34 0 3 7 3 15 0 8 -4 15
-10 15 -15z m-130 1 c13 -8 13 -10 -2 -10 -9 0 -20 5 -23 10 -8 13 5 13 25 0z
m-296 -15 c-4 -8 -11 -15 -16 -15 -6 0 -5 6 2 15 7 8 14 15 16 15 2 0 1 -7 -2
-15z m123 -7 c-3 -8 -6 -5 -6 6 -1 11 2 17 5 13 3 -3 4 -12 1 -19z m288 -8 c3
-5 2 -10 -4 -10 -5 0 -13 5 -16 10 -3 6 -2 10 4 10 5 0 13 -4 16 -10z m-428
-16 c-3 -3 -12 -4 -19 -1 -8 3 -5 6 6 6 11 1 17 -2 13 -5z m743 2 c0 -2 -8
-10 -17 -17 -16 -13 -17 -12 -4 4 13 16 21 21 21 13z m-250 -20 c0 -3 -4 -8
-10 -11 -5 -3 -10 -1 -10 4 0 6 5 11 10 11 6 0 10 -2 10 -4z m390 -6 c0 -5 -5
-10 -11 -10 -5 0 -7 5 -4 10 3 6 8 10 11 10 2 0 4 -4 4 -10z m-231 -69 c-12
-23 -27 -41 -32 -41 -11 0 -8 6 23 52 32 48 38 41 9 -11z m125 23 c3 -8 2 -12
-4 -9 -6 3 -10 10 -10 16 0 14 7 11 14 -7z m-1194 -14 c-74 -11 -897 -25 -888
-16 3 4 179 10 390 13 211 3 385 7 387 9 2 2 41 3 85 3 81 -2 81 -2 26 -9z
m163 -7 c-7 -2 -21 -2 -30 0 -10 3 -4 5 12 5 17 0 24 -2 18 -5z m202 -42 c5
-16 4 -21 -4 -17 -6 4 -11 14 -11 22 0 8 -7 14 -16 14 -8 0 -12 -4 -9 -10 3
-5 -1 -10 -11 -10 -13 0 -14 3 -5 13 6 8 7 18 3 22 -4 5 -1 5 6 1 7 -4 12 -2
12 6 0 19 26 -12 35 -41z m4362 3 c-3 -3 -12 -4 -19 -1 -8 3 -5 6 6 6 11 1 17
-2 13 -5z m-4620 -31 c-15 -4 -16 -7 -6 -20 11 -12 10 -17 -4 -24 -9 -6 -17
-14 -17 -20 0 -13 -31 -44 -51 -52 -9 -3 -22 0 -28 6 -8 8 -11 6 -11 -7 0 -14
-5 -17 -22 -13 -14 4 -29 0 -40 -10 -10 -9 -18 -11 -18 -6 0 7 -35 9 -97 7
-84 -3 -158 -9 -158 -14 0 0 -38 -3 -85 -5 -47 -3 -94 -7 -104 -8 -18 -3 -46
1 -115 17 -14 3 -31 0 -39 -7 -12 -10 -14 -9 -9 8 3 11 11 46 17 78 l11 57
177 1 c97 1 249 5 337 9 197 8 286 9 262 3z m900 -15 c-3 -8 -6 -5 -6 6 -1 11
2 17 5 13 3 -3 4 -12 1 -19z m-27 -32 c0 -2 -16 -20 -35 -40 -19 -21 -35 -34
-35 -30 0 5 14 23 32 41 31 32 38 37 38 29z m513 -54 c-3 -12 -10 -22 -15 -22
-5 0 -7 3 -5 8 2 4 7 16 11 26 9 25 17 16 9 -12z m-1146 12 c-3 -3 -12 -4 -19
-1 -8 3 -5 6 6 6 11 1 17 -2 13 -5z m469 -69 c-11 -8 -25 -15 -30 -15 -6 1 0
7 14 15 32 19 40 18 16 0z m54 11 c0 -2 -8 -10 -17 -17 -16 -13 -17 -12 -4 4
13 16 21 21 21 13z m-203 -12 c-3 -3 -12 -4 -19 -1 -8 3 -5 6 6 6 11 1 17 -2
13 -5z m663 1 c0 -2 -26 -22 -57 -43 -60 -40 -116 -59 -193 -67 -476 -47 -661
-57 -1195 -59 -280 -2 -535 0 -565 3 -30 3 166 7 435 8 620 3 1024 22 1260 59
55 9 104 17 110 18 5 0 18 9 29 19 11 9 29 17 40 17 12 1 46 12 76 25 62 27
60 27 60 20z m-783 -11 c-3 -3 -12 -4 -19 -1 -8 3 -5 6 6 6 11 1 17 -2 13 -5z
m-230 -10 c-3 -3 -12 -4 -19 -1 -8 3 -5 6 6 6 11 1 17 -2 13 -5z m156 -41 c-7
-2 -19 -2 -25 0 -7 3 -2 5 12 5 14 0 19 -2 13 -5z m-76 -49 c-3 -3 -12 -4 -19
-1 -8 3 -5 6 6 6 11 1 17 -2 13 -5z m50 0 c-3 -3 -12 -4 -19 -1 -8 3 -5 6 6 6
11 1 17 -2 13 -5z m903 -19 c0 -8 -4 -15 -10 -15 -5 0 -7 7 -4 15 4 8 8 15 10
15 2 0 4 -7 4 -15z m17 -27 c-3 -8 -6 -5 -6 6 -1 11 2 17 5 13 3 -3 4 -12 1
-19z m-100 6 c-3 -3 -12 -4 -19 -1 -8 3 -5 6 6 6 11 1 17 -2 13 -5z m-87 -53
c0 -5 -7 -12 -16 -15 -14 -5 -15 -4 -4 9 14 17 20 19 20 6z m47 -26 c0 -8 -4
-15 -9 -15 -4 0 -8 -6 -8 -14 0 -8 -8 -17 -17 -21 -15 -5 -16 -4 -5 6 17 18
15 29 -5 29 -12 1 -7 6 12 15 17 7 30 14 31 14 0 1 1 -6 1 -14z m-81 -27 c4
-6 3 -8 -4 -4 -6 3 -15 -2 -21 -11 -6 -10 -11 -13 -11 -7 0 9 19 34 26 34 2 0
6 -5 10 -12z m94 -8 c0 -5 -2 -10 -4 -10 -3 0 -8 5 -11 10 -3 6 -1 10 4 10 6
0 11 -4 11 -10z m-235 -30 c-3 -5 -16 -10 -28 -9 -21 0 -21 1 -2 9 28 12 37
12 30 0z m-55 -10 c0 -5 -19 -9 -42 -9 -40 1 -41 2 -13 9 44 11 55 11 55 0z
m-3590 -27 c0 -16 -2 -16 -11 -3 -8 12 -9 10 -7 -10 2 -17 9 -25 23 -25 14 0
19 6 17 19 -3 14 1 17 12 13 9 -4 16 -2 16 3 0 5 -10 11 -22 13 -20 4 -19 4 5
6 15 0 27 -3 27 -7 0 -4 15 -6 33 -4 34 4 769 -41 951 -59 60 -5 225 -34 365
-63 141 -29 273 -57 295 -60 21 -4 36 -9 34 -11 -4 -4 -846 56 -1108 79 -474
42 -646 60 -651 69 -4 5 -11 7 -17 3 -5 -3 -12 4 -15 16 -7 24 7 38 36 38 10
0 17 -7 17 -17z m3397 11 c-3 -3 -12 -4 -19 -1 -8 3 -5 6 6 6 11 1 17 -2 13
-5z m76 -1 c-13 -2 -33 -2 -45 0 -13 2 -3 4 22 4 25 0 35 -2 23 -4z m-235 -10
c-10 -2 -28 -2 -40 0 -13 2 -5 4 17 4 22 1 32 -1 23 -4z m65 0 c-7 -2 -21 -2
-30 0 -10 3 -4 5 12 5 17 0 24 -2 18 -5z m-715 -18 c8 -8 -321 -4 -483 5 -92
6 -41 7 174 4 167 -1 306 -6 309 -9z m57 5 c-3 -5 -10 -10 -16 -10 -5 0 -9 5
-9 10 0 6 7 10 16 10 8 0 12 -4 9 -10z m80 0 c3 -6 -1 -7 -9 -4 -18 7 -21 14
-7 14 6 0 13 -4 16 -10z m162 4 c-3 -3 -12 -4 -19 -1 -8 3 -5 6 6 6 11 1 17
-2 13 -5z m106 -1 c-18 -2 -48 -2 -65 0 -18 2 -4 4 32 4 36 0 50 -2 33 -4z
m64 1 c-3 -3 -12 -4 -19 -1 -8 3 -5 6 6 6 11 1 17 -2 13 -5z m2178 -566 c14
-6 25 -15 25 -19 0 -11 -87 -72 -140 -99 -65 -33 -136 -50 -212 -50 -75 0 -98
6 -98 26 0 11 18 14 73 15 49 0 66 3 52 9 -18 8 -17 9 8 9 15 1 27 5 27 11 0
5 3 9 8 9 4 -1 9 0 12 1 3 1 19 4 35 6 17 3 45 12 64 21 19 8 44 16 57 17 12
0 22 6 21 11 -1 6 5 11 13 11 46 4 46 4 26 19 -24 18 -7 20 29 3z m-580 -88
c10 -11 16 -20 13 -20 -3 0 -13 9 -23 20 -10 11 -16 20 -13 20 3 0 13 -9 23
-20z"/>
<path d="M7645 4200 c3 -5 8 -10 11 -10 2 0 4 5 4 10 0 6 -5 10 -11 10 -5 0
-7 -4 -4 -10z"/>
<path d="M6735 4165 c-60 -13 -127 -26 -148 -30 -28 -4 -37 -10 -33 -21 4 -11
2 -12 -14 -4 -24 13 -33 13 -25 0 3 -5 1 -10 -5 -10 -6 0 -8 -4 -5 -10 3 -6
-1 -7 -10 -3 -12 4 -14 8 -4 13 7 5 2 7 -14 7 -19 -2 -23 -5 -15 -14 7 -9 7
-13 -1 -13 -7 0 -9 -5 -5 -11 3 -6 -8 -4 -24 5 -17 9 -38 13 -46 10 -19 -7
-21 -24 -3 -24 8 0 7 -4 -3 -10 -8 -5 -19 -10 -25 -10 -5 0 -3 5 5 10 13 8 12
10 -3 10 -10 0 -20 -7 -23 -15 -4 -8 -11 -12 -18 -8 -6 3 2 -6 18 -22 17 -15
44 -34 62 -41 28 -12 37 -11 83 9 60 25 70 19 72 -43 0 -19 5 -46 9 -60 7 -22
8 -19 9 16 1 23 -4 56 -10 74 -11 31 -3 49 23 50 9 0 23 -71 27 -137 0 -13 5
-23 10 -23 15 0 18 62 5 85 -7 11 -15 34 -18 51 -6 29 -5 31 33 43 22 6 43 16
46 22 4 5 3 8 -2 7 -5 -2 -22 10 -38 26 -26 26 -27 28 -5 21 17 -5 21 -4 15 6
-6 9 -3 11 9 6 9 -4 15 -3 12 2 -3 5 4 11 17 15 42 11 48 6 21 -19 -15 -14
-31 -25 -35 -25 -5 0 -9 -4 -9 -10 0 -5 13 -1 30 8 16 9 30 21 30 25 0 5 5 5
10 2 6 -3 10 -2 10 3 0 12 70 43 118 52 33 7 34 8 7 8 -16 0 -79 -11 -140 -23z
m-90 -105 c-5 -7 -50 -19 -87 -23 -10 -1 -18 -5 -18 -9 0 -4 -5 -8 -11 -8 -19
0 -3 25 17 26 33 2 79 29 76 45 -1 9 3 7 13 -5 8 -10 12 -22 10 -26z m-206 -6
c14 -12 -19 -1 -35 12 -18 14 -18 14 6 3 14 -6 27 -13 29 -15z m41 -35 c0 -5
-7 -9 -15 -9 -15 0 -20 12 -9 23 8 8 24 -1 24 -14z m-79 -2 c-6 -8 -8 -17 -4
-20 3 -4 2 -7 -4 -7 -6 0 -17 8 -24 17 -8 10 -9 14 -2 10 6 -4 14 -3 18 3 3 5
11 10 17 10 7 0 7 -4 -1 -13z m109 9 c0 -3 -4 -8 -10 -11 -5 -3 -10 -1 -10 4
0 6 5 11 10 11 6 0 10 -2 10 -4z"/>
<path d="M7161 4185 c0 -5 8 -25 18 -44 l18 -34 -1 31 c0 18 -6 32 -13 32 -6
0 -14 6 -16 13 -3 6 -6 8 -6 2z"/>
<path d="M6815 4150 c-3 -5 1 -10 9 -10 9 0 16 5 16 10 0 6 -4 10 -9 10 -6 0
-13 -4 -16 -10z"/>
<path d="M6864 4145 c11 -8 22 -12 25 -9 6 6 -19 24 -34 24 -5 -1 -1 -7 9 -15z"/>
<path d="M7091 4153 c0 -5 4 -17 9 -28 8 -18 9 -17 9 8 1 15 -3 27 -9 27 -5 0
-10 -3 -9 -7z"/>
<path d="M6891 4118 l-14 -23 24 20 c13 11 26 21 28 22 2 2 -2 3 -10 3 -8 0
-20 -10 -28 -22z"/>
<path d="M6798 4118 c-9 -22 2 -30 20 -15 8 6 18 11 21 9 3 -2 7 2 9 8 3 9 -1
9 -16 1 -15 -8 -21 -8 -24 1 -3 8 -7 6 -10 -4z"/>
<path d="M7216 4115 c4 -9 0 -15 -7 -15 -8 -1 -2 -8 14 -16 15 -8 27 -20 27
-27 0 -8 4 -6 10 3 6 9 10 10 10 3 0 -6 -5 -15 -10 -18 -6 -4 -8 -16 -4 -27 4
-13 1 -24 -7 -29 -11 -6 -11 -11 -2 -20 9 -9 15 -3 27 26 14 34 14 40 0 71
-16 34 -69 80 -58 49z"/>
<path d="M6425 4090 c3 -5 11 -10 16 -10 6 0 7 5 4 10 -3 6 -11 10 -16 10 -6
0 -7 -4 -4 -10z"/>
<path d="M7074 4045 c3 -8 0 -15 -7 -16 -7 0 -1 -5 12 -10 13 -5 26 -7 29 -4
3 3 0 5 -6 5 -7 0 -12 9 -12 20 0 11 -5 20 -11 20 -6 0 -9 -7 -5 -15z"/>
<path d="M6080 4033 c-25 -9 -54 -22 -65 -29 -17 -12 -17 -14 -2 -14 20 0 23
-16 5 -23 -7 -3 -1 -6 15 -6 34 -1 43 2 39 12 -1 5 2 6 8 2 6 -4 17 -2 24 5 8
6 26 8 41 4 19 -5 23 -9 14 -15 -11 -6 -11 -11 -1 -21 9 -9 12 -9 12 0 0 6 15
19 33 28 17 9 40 23 49 32 17 14 16 16 -8 28 -34 18 -107 16 -164 -3z m70 -29
c0 -2 -7 -4 -15 -4 -8 0 -15 4 -15 10 0 5 7 7 15 4 8 -4 15 -8 15 -10z"/>
<path d="M7035 4041 c-3 -5 -1 -12 4 -15 5 -3 11 1 15 9 6 16 -9 21 -19 6z"/>
<path d="M6657 4014 c-10 -17 7 -147 21 -152 8 -2 12 6 12 25 -1 42 -25 139
-33 127z"/>
<path d="M6746 4011 c-3 -5 3 -11 13 -14 14 -3 18 -1 14 9 -6 16 -19 18 -27 5z"/>
<path d="M6706 3975 c4 -8 10 -12 15 -9 5 3 9 0 9 -5 0 -6 -4 -11 -9 -11 -5 0
-11 -11 -13 -25 -3 -14 -1 -25 3 -25 5 0 9 -6 9 -13 0 -8 7 -14 16 -14 11 0
14 7 11 24 -2 13 0 23 4 23 5 0 1 16 -8 35 -16 33 -49 51 -37 20z"/>
<path d="M6760 3971 c0 -6 4 -13 10 -16 6 -3 7 1 4 9 -7 18 -14 21 -14 7z"/>
<path d="M5880 3927 c-59 -47 -160 -153 -160 -168 0 -6 18 5 40 22 29 23 51
33 79 33 22 1 37 4 34 9 -2 4 1 7 7 7 7 0 9 -7 6 -16 -3 -9 -6 -18 -6 -20 0
-3 -6 -2 -12 2 -10 6 -10 4 -2 -7 6 -8 14 -23 17 -34 7 -19 6 -19 -7 -2 -17
21 -42 22 -50 1 -5 -13 -2 -15 15 -11 15 4 19 2 15 -10 -3 -8 -9 -26 -12 -39
-3 -13 -12 -24 -19 -24 -13 0 -31 -18 -24 -24 10 -9 49 -16 48 -9 -1 4 0 13 1
18 1 6 3 16 4 24 0 8 8 16 16 18 13 4 13 3 0 -6 -10 -7 -11 -11 -2 -11 7 0 19
18 28 40 9 22 19 39 22 38 18 -2 26 3 14 10 -9 6 -7 18 8 50 24 49 24 53 5 46
-8 -3 -13 -11 -12 -16 1 -6 -4 -13 -10 -15 -7 -3 -13 0 -13 6 0 7 -8 7 -26 1
-14 -6 -28 -10 -32 -10 -12 1 40 39 83 62 39 21 40 22 15 29 -14 4 -18 7 -8 8
9 1 24 4 34 8 12 4 15 3 10 -5 -4 -7 -3 -12 3 -12 23 0 20 20 -4 26 -14 3 -25
10 -25 15 0 19 -27 7 -80 -34z"/>
<path d="M6322 3925 c-18 -19 -28 -35 -22 -35 5 0 10 -6 10 -13 0 -19 66 -21
73 -2 8 20 -30 42 -46 26 -22 -22 -30 -10 -8 13 19 20 28 22 57 16 25 -6 34
-5 34 5 0 11 -30 25 -55 25 -5 0 -25 -16 -43 -35z"/>
<path d="M6497 3944 c-8 -8 3 -34 14 -34 11 0 12 27 0 34 -4 3 -11 3 -14 0z"/>
<path d="M6032 3928 c-7 -7 -12 -19 -12 -27 1 -12 4 -11 12 4 6 11 16 23 22
27 7 5 8 8 1 8 -6 0 -16 -5 -23 -12z"/>
<path d="M6771 3918 c-1 -19 3 -26 12 -22 8 3 14 11 14 19 0 8 -4 12 -8 9 -4
-2 -10 2 -12 8 -3 7 -6 1 -6 -14z"/>
<path d="M6501 3893 c0 -5 4 -17 9 -28 8 -18 9 -17 9 8 1 15 -3 27 -9 27 -5 0
-10 -3 -9 -7z"/>
<path d="M6113 3875 c-9 -25 4 -29 17 -6 7 15 7 21 0 21 -6 0 -13 -7 -17 -15z"/>
<path d="M6265 3880 c-8 -13 -1 -24 14 -19 6 3 7 10 2 18 -6 10 -10 10 -16 1z"/>
<path d="M5987 3848 c-2 -7 -4 -16 -3 -20 0 -4 -7 -13 -17 -20 -11 -8 -20 -30
-22 -53 -3 -39 -3 -39 10 -15 8 14 14 33 15 43 0 9 4 17 8 17 4 0 13 14 19 30
6 17 8 30 3 30 -4 0 -10 -6 -13 -12z"/>
<path d="M6764 3848 c-4 -6 -3 -8 4 -4 6 3 13 2 17 -4 8 -14 42 -13 51 2 5 8
2 9 -9 5 -10 -3 -17 -2 -17 3 0 14 -37 12 -46 -2z"/>
<path d="M7013 3828 c2 -7 10 -12 16 -10 6 1 11 -2 11 -7 0 -5 7 -17 16 -25
29 -29 144 -16 144 16 0 9 -3 9 -12 0 -7 -7 -21 -12 -32 -12 -16 0 -17 3 -8
12 21 21 13 29 -15 15 -34 -16 -73 -11 -73 9 0 8 -10 14 -26 14 -16 0 -24 -5
-21 -12z"/>
<path d="M7236 3814 c-4 -14 -5 -28 -3 -31 3 -2 8 8 11 23 4 14 5 28 3 31 -3
2 -8 -8 -11 -23z"/>
<path d="M6955 3800 c-3 -5 3 -10 15 -10 12 0 18 5 15 10 -3 6 -10 10 -15 10
-5 0 -12 -4 -15 -10z"/>
<path d="M5806 3773 c-6 -14 -5 -15 5 -6 7 7 10 15 7 18 -3 3 -9 -2 -12 -12z"/>
<path d="M6410 3781 c0 -5 9 -7 20 -4 11 3 20 7 20 9 0 2 -9 4 -20 4 -11 0
-20 -4 -20 -9z"/>
<path d="M6773 3776 c-32 -10 -46 -36 -20 -36 8 0 7 -4 -3 -10 -21 -13 -1 -44
33 -48 24 -3 25 -2 14 22 -7 14 -16 26 -20 26 -4 0 -2 6 5 13 6 8 22 11 35 9
17 -3 23 0 23 14 0 9 -3 14 -7 11 -3 -4 -11 -3 -17 1 -6 4 -26 3 -43 -2z"/>
<path d="M6580 3761 c-26 -7 -41 -41 -18 -41 33 0 58 14 58 31 0 20 -2 21 -40
10z"/>
<path d="M6653 3754 c-3 -9 0 -20 8 -25 12 -7 12 -9 -1 -9 -10 0 -7 -7 10 -20
18 -13 28 -16 37 -8 15 12 18 42 3 33 -5 -3 -10 -2 -10 3 0 6 7 12 15 16 28
10 15 26 -20 26 -23 0 -38 -6 -42 -16z"/>
<path d="M6314 3738 c-14 -42 -14 -54 2 -34 13 18 20 56 10 56 -3 0 -8 -10
-12 -22z"/>
<path d="M6405 3734 l-17 -26 34 3 c38 3 58 15 58 35 0 26 -56 17 -75 -12z"/>
<path d="M6510 3740 c-6 -11 -8 -20 -6 -20 3 0 10 9 16 20 6 11 8 20 6 20 -3
0 -10 -9 -16 -20z"/>
<path d="M7109 3751 c8 -5 11 -16 8 -24 -4 -11 -1 -14 9 -10 7 3 14 1 14 -4 0
-18 -84 -52 -122 -49 -35 3 -52 -8 -27 -16 5 -2 7 -11 3 -21 -9 -24 -27 -16
-35 14 -5 21 -7 22 -14 6 -15 -35 35 -63 63 -35 9 9 12 9 12 1 0 -7 9 -10 19
-8 29 5 55 -29 47 -62 l-7 -28 21 25 c11 14 20 29 20 33 0 5 4 6 9 3 5 -3 7
-16 3 -29 -5 -19 -4 -20 11 -9 9 8 19 22 22 32 3 10 15 20 25 23 11 3 20 11
20 19 0 10 -3 9 -11 -2 -8 -12 -10 -12 -7 4 2 11 8 19 13 17 16 -4 37 102 22
111 -21 13 -37 9 -37 -10 0 -10 -7 -41 -16 -68 -9 -27 -18 -56 -20 -64 -4 -13
-6 -13 -14 0 -6 9 -4 20 4 30 11 12 36 101 36 125 0 3 -19 5 -42 5 -29 0 -38
-3 -29 -9z m-65 -107 c18 -7 12 -24 -10 -24 -8 0 -14 7 -14 15 0 17 2 18 24 9z"/>
<path d="M7000 3711 l-35 -29 52 0 c31 0 59 6 70 15 17 14 17 14 -2 8 -50 -18
-58 -16 -26 6 19 13 29 25 22 27 -7 2 -25 -8 -40 -22 -15 -14 -33 -26 -40 -26
-6 0 1 11 16 25 40 35 24 31 -17 -4z"/>
<path d="M6573 3712 c-26 -4 -31 -27 -8 -36 9 -3 19 3 26 15 13 24 11 26 -18
21z"/>
<path d="M6066 3695 c-3 -8 -1 -15 4 -15 6 0 10 7 10 15 0 8 -2 15 -4 15 -2 0
-6 -7 -10 -15z"/>
<path d="M6491 3696 c-18 -21 -8 -44 25 -56 17 -7 24 -15 20 -25 -7 -18 5 -20
22 -3 13 13 16 39 5 36 -10 -4 -49 35 -55 52 -3 9 -7 8 -17 -4z"/>
<path d="M6377 3682 c-19 -20 -23 -37 -7 -27 9 5 15 -15 11 -37 0 -5 6 -8 15
-8 8 0 12 -4 9 -10 -3 -5 -17 -10 -31 -10 -20 0 -24 -5 -24 -30 0 -60 61 -20
81 53 6 22 15 50 19 63 9 22 7 24 -24 24 -19 0 -40 -8 -49 -18z"/>
<path d="M6614 3688 c-9 -15 24 -38 54 -38 29 0 21 14 -18 34 -20 10 -32 11
-36 4z"/>
<path d="M6583 3605 c0 -7 10 -10 24 -7 13 2 23 6 23 7 0 1 -10 5 -23 7 -14 3
-24 0 -24 -7z"/>
<path d="M6878 3603 c7 -3 16 -2 19 1 4 3 -2 6 -13 5 -11 0 -14 -3 -6 -6z"/>
<path d="M6618 3584 c-16 -8 -28 -19 -28 -23 0 -5 -7 -12 -16 -15 -11 -4 -14
0 -12 17 3 20 -2 22 -51 25 -30 2 -58 -1 -64 -7 -6 -6 5 -7 32 -4 37 5 41 4
41 -16 0 -18 -4 -21 -30 -16 -17 3 -30 1 -30 -5 0 -5 -6 -7 -13 -4 -8 3 -20
-2 -27 -11 -11 -13 0 -15 104 -15 l116 0 20 33 c11 18 15 33 10 35 -6 2 -8 8
-4 13 8 14 -17 10 -48 -7z m-64 -19 c-4 -8 -10 -15 -15 -15 -4 0 -6 7 -3 15 4
8 10 15 15 15 4 0 6 -7 3 -15z"/>
<path d="M6683 3564 c-1 -28 2 -34 18 -34 10 0 19 7 19 15 0 9 7 18 15 21 8 4
15 10 15 15 0 4 -6 6 -14 3 -8 -3 -23 -1 -33 4 -16 9 -18 6 -20 -24z"/>
<path d="M7035 3588 c-42 -23 -69 -68 -40 -68 9 0 15 6 14 13 -3 28 2 37 24
37 13 0 29 -6 36 -12 11 -11 11 -9 1 12 -7 14 -13 26 -14 27 -1 1 -10 -3 -21
-9z"/>
<path d="M7166 3556 c-10 -17 -12 -27 -5 -31 12 -8 11 -9 27 28 14 34 0 36
-22 3z"/>
<path d="M5975 3550 c-3 -5 -1 -10 4 -10 6 0 11 5 11 10 0 6 -2 10 -4 10 -3 0
-8 -4 -11 -10z"/>
<path d="M6955 3530 c-3 -5 -1 -10 4 -10 6 0 11 5 11 10 0 6 -2 10 -4 10 -3 0
-8 -4 -11 -10z"/>
<path d="M7108 3513 c7 -3 16 -2 19 1 4 3 -2 6 -13 5 -11 0 -14 -3 -6 -6z"/>
<path d="M6640 3501 c-16 -4 -26 -15 -28 -30 -4 -23 -4 -23 97 -19 55 2 103 7
106 10 4 3 2 16 -5 27 -8 16 -20 21 -48 21 -21 0 -43 -5 -50 -12 -9 -9 -12 -9
-12 0 0 13 -20 14 -60 3z"/>
<path d="M6886 3496 c3 -8 13 -17 22 -21 13 -5 13 -2 -3 15 -21 24 -26 25 -19
6z"/>
<path d="M6550 3481 c0 -5 -9 -11 -20 -13 -34 -5 -18 -21 23 -23 33 -1 38 1
35 19 -3 21 -38 37 -38 17z"/>
<path d="M6375 3449 c-17 -6 -16 -8 7 -8 15 -1 29 3 32 7 6 11 -14 11 -39 1z"/>
<path d="M6738 3403 c18 -2 45 -2 60 0 15 2 0 4 -33 4 -33 0 -45 -2 -27 -4z"/>
<path d="M6488 3393 c7 -3 16 -2 19 1 4 3 -2 6 -13 5 -11 0 -14 -3 -6 -6z"/>
<path d="M6558 3393 c18 -2 45 -2 60 0 15 2 0 4 -33 4 -33 0 -45 -2 -27 -4z"/>
<path d="M6093 3383 c53 -2 141 -2 195 0 53 1 9 3 -98 3 -107 0 -151 -2 -97
-3z"/>
<path d="M8738 2803 c7 -3 16 -2 19 1 4 3 -2 6 -13 5 -11 0 -14 -3 -6 -6z"/>
<path d="M8630 2744 c-53 -14 -128 -52 -162 -81 -15 -14 -13 -20 32 -82 75
-103 126 -145 208 -172 86 -28 94 -24 122 70 24 74 60 232 60 257 0 16 -2 16
-17 2 -28 -24 -133 -81 -133 -71 0 4 28 23 63 42 58 32 60 35 37 42 -43 12
-152 8 -210 -7z"/>
<path d="M9037 2523 c-11 -109 -8 -212 8 -309 22 -134 17 -128 94 -121 36 4
83 11 105 17 35 11 37 13 20 24 -11 7 -32 18 -49 24 -16 6 -25 11 -19 11 7 1
-1 25 -17 59 -16 31 -29 66 -29 77 0 23 -27 105 -40 120 -4 5 -11 29 -15 52
-4 23 -16 54 -26 68 -11 13 -17 29 -14 35 3 5 2 10 -3 10 -5 0 -12 -30 -15
-67z"/>
<path d="M8277 2453 c-8 -10 -39 -65 -68 -123 -70 -141 -106 -269 -133 -472
l-4 -36 51 15 c135 39 184 73 256 177 58 84 77 132 56 139 -7 3 -11 15 -8 30
3 16 -17 66 -61 155 -36 73 -68 132 -70 132 -1 0 -10 -8 -19 -17z m103 -293
c8 -5 12 -12 9 -15 -8 -8 -39 5 -39 16 0 11 11 11 30 -1z"/>
<path d="M8871 2434 c0 -11 3 -14 6 -6 3 7 2 16 -1 19 -3 4 -6 -2 -5 -13z"/>
<path d="M8862 2375 c0 -16 2 -22 5 -12 2 9 2 23 0 30 -3 6 -5 -1 -5 -18z"/>
<path d="M8681 2176 c-19 -20 -20 -24 -7 -29 20 -8 21 -60 3 -76 -8 -6 -17 -8
-20 -4 -10 10 -8 -3 4 -30 11 -23 67 -58 92 -56 7 0 3 4 -8 9 -11 5 -14 9 -7
9 17 1 42 62 42 101 0 17 -7 46 -14 65 -18 42 -51 47 -85 11z"/>
<path d="M8665 2121 c4 -7 2 -16 -5 -21 -9 -5 -9 -9 -1 -14 16 -10 26 23 11
37 -10 9 -11 9 -5 -2z"/>
<path d="M8786 1958 c10 -14 21 -24 23 -22 3 3 -6 15 -18 27 l-24 22 19 -27z"/>
<path d="M8860 1960 c-7 -14 -8 -26 0 -39 14 -28 13 -47 -7 -66 -22 -23 -7
-69 24 -73 56 -8 98 92 69 162 -12 30 -20 36 -45 36 -20 0 -34 -7 -41 -20z"/>
<path d="M8811 1904 c0 -11 3 -14 6 -6 3 7 2 16 -1 19 -3 4 -6 -2 -5 -13z"/>
<path d="M8538 1893 c-9 -2 -24 -15 -32 -29 -15 -21 -15 -24 -1 -24 24 0 21
-70 -4 -77 -17 -4 -18 -9 -9 -34 11 -33 46 -46 77 -30 53 29 69 134 26 176
-24 25 -27 26 -57 18z"/>
<path d="M8701 1859 c-13 -10 -19 -19 -13 -19 5 0 15 7 23 16 9 11 22 14 43
10 17 -3 37 -2 44 3 8 5 -3 8 -30 8 -28 1 -51 -5 -67 -18z"/>
<path d="M9224 1826 c-55 -37 -100 -87 -158 -180 -61 -97 -61 -94 -24 -248 18
-76 36 -138 39 -138 11 0 96 193 122 276 25 80 57 228 57 266 0 19 -2 19 -45
-6 -62 -37 -56 -26 10 18 30 20 55 38 55 41 0 7 0 7 -56 -29z m22 -62 c-4 -9
-9 -15 -11 -12 -3 3 -3 13 1 22 4 9 9 15 11 12 3 -3 3 -13 -1 -22z"/>
<path d="M8775 1830 c-16 -7 -17 -9 -3 -9 9 -1 20 4 23 9 7 11 7 11 -20 0z"/>
<path d="M8690 1806 c0 -2 7 -7 16 -10 8 -3 12 -2 9 4 -6 10 -25 14 -25 6z"/>
<path d="M8735 1800 c-3 -6 1 -7 9 -4 18 7 21 14 7 14 -6 0 -13 -4 -16 -10z"/>
<path d="M8796 1760 c-10 -22 -30 -47 -44 -55 -15 -8 -22 -14 -17 -15 20 0 53
30 70 65 9 20 15 38 13 41 -3 2 -12 -14 -22 -36z"/>
<path d="M8677 1699 c7 -7 15 -10 18 -7 3 3 -2 9 -12 12 -14 6 -15 5 -6 -5z"/>
<path d="M8707 1659 c-26 -19 -26 -21 -10 -45 13 -20 14 -30 4 -50 -8 -18 -17
-24 -27 -20 -12 5 -15 2 -10 -10 3 -8 6 -20 6 -25 0 -5 11 -16 24 -24 20 -13
29 -14 46 -5 60 32 69 200 11 200 -10 0 -30 -9 -44 -21z"/>
<path d="M8673 1580 c-1 -11 2 -18 8 -15 11 7 12 35 1 35 -4 0 -8 -9 -9 -20z"/>
<path d="M8195 1563 c-60 -8 -111 -16 -113 -17 -1 -2 11 -54 27 -117 33 -130
69 -217 103 -249 12 -11 23 -27 23 -35 0 -16 75 -109 82 -102 2 3 -14 35 -36
72 -45 74 -55 108 -16 55 14 -19 25 -27 25 -19 0 8 6 23 13 33 19 26 77 13 78
-17 1 -48 31 61 36 134 6 77 -11 229 -28 261 -12 22 -39 22 -194 1z"/>
<path d="M6355 2460 c-3 -5 -1 -10 4 -10 6 0 11 5 11 10 0 6 -2 10 -4 10 -3 0
-8 -4 -11 -10z"/>
<path d="M6374 2425 c11 -8 22 -12 25 -9 6 6 -19 24 -34 24 -5 -1 -1 -7 9 -15z"/>
<path d="M6090 2369 c0 -5 5 -7 10 -4 6 3 10 8 10 11 0 2 -4 4 -10 4 -5 0 -10
-5 -10 -11z"/>
<path d="M7113 2413 c-7 -3 -13 -9 -13 -15 0 -6 7 -5 16 3 15 12 16 11 9 -11
-4 -14 -4 -21 1 -15 5 5 13 12 17 16 11 8 -15 27 -30 22z"/>
<path d="M6687 2406 c-4 -10 -1 -13 9 -9 15 6 19 23 5 23 -5 0 -11 -7 -14 -14z"/>
<path d="M6685 2367 c-5 -7 -11 -19 -13 -27 -1 -10 3 -8 13 4 8 11 15 23 15
28 0 11 -3 10 -15 -5z"/>
<path d="M6706 2355 c-9 -23 -8 -25 9 -25 17 0 19 9 6 28 -7 11 -10 10 -15 -3z"/>
<path d="M6620 2100 c0 -5 4 -10 9 -10 6 0 13 5 16 10 3 6 -1 10 -9 10 -9 0
-16 -4 -16 -10z"/>
<path d="M12195 5075 c-28 -6 -65 -11 -83 -11 -35 1 -42 -17 -22 -55 15 -26
39 -24 50 6 10 27 45 40 85 33 21 -4 25 -1 25 18 0 13 -1 24 -2 23 -2 -1 -26
-7 -53 -14z"/>
<path d="M7175 5040 c-16 -7 -17 -9 -3 -9 9 -1 20 4 23 9 7 11 7 11 -20 0z"/>
<path d="M9500 5045 c0 -5 5 -17 10 -25 5 -8 10 -10 10 -5 0 6 -5 17 -10 25
-5 8 -10 11 -10 5z"/>
<path d="M7015 4984 c-66 -24 -129 -48 -140 -53 -11 -5 -76 -33 -145 -62 -69
-29 -185 -83 -259 -119 -117 -58 -129 -66 -97 -66 19 0 30 3 24 7 -7 4 4 10
25 14 20 4 37 11 37 16 0 5 5 9 11 9 5 0 7 -4 4 -10 -3 -6 1 -7 9 -4 9 3 13
10 10 15 -3 5 2 9 10 9 9 0 16 -4 16 -10 0 -5 4 -10 9 -10 6 0 8 9 6 21 -3 17
-1 19 10 9 10 -9 15 -7 19 7 4 14 15 18 41 17 19 -1 52 7 73 17 21 11 50 22
63 24 13 3 26 10 27 15 3 7 9 7 18 -1 11 -9 18 -9 26 -1 9 9 9 12 -2 12 -7 0
-10 3 -7 6 4 4 13 2 21 -5 11 -9 17 -8 29 4 9 8 20 15 25 15 6 0 40 13 77 30
43 19 64 34 59 41 -4 7 -3 9 3 6 6 -4 26 -2 44 4 38 13 63 31 32 23 -23 -6
-40 11 -22 22 7 4 9 3 6 -2 -3 -6 10 -11 29 -11 23 -1 37 4 41 14 3 8 11 12
18 10 6 -3 12 1 12 9 0 8 -4 14 -8 14 -4 0 -13 2 -21 5 -7 2 -67 -16 -133 -41z
m35 -24 c0 -5 -5 -10 -11 -10 -5 0 -7 5 -4 10 3 6 8 10 11 10 2 0 4 -4 4 -10z
m-120 -65 c0 -7 -30 -13 -34 -7 -3 4 4 9 15 9 10 1 19 0 19 -2z"/>
<path d="M7195 5010 c-3 -6 1 -7 9 -4 18 7 21 14 7 14 -6 0 -13 -4 -16 -10z"/>
<path d="M9526 4980 c3 -14 11 -32 16 -40 6 -10 7 -7 2 10 -3 14 -11 32 -16
40 -6 10 -7 7 -2 -10z"/>
<path d="M12332 4960 c0 -19 2 -27 5 -17 2 9 2 25 0 35 -3 9 -5 1 -5 -18z"/>
<path d="M9550 4915 c0 -5 5 -17 10 -25 5 -8 10 -10 10 -5 0 6 -5 17 -10 25
-5 8 -10 11 -10 5z"/>
<path d="M9576 4850 c3 -14 11 -32 16 -40 6 -10 7 -7 2 10 -3 14 -11 32 -16
40 -6 10 -7 7 -2 -10z"/>
<path d="M10906 4778 c2 -44 11 -93 20 -112 30 -61 93 -73 143 -27 29 27 31
34 31 94 0 36 -4 68 -9 71 -5 4 -35 -1 -67 -9 -32 -8 -70 -15 -86 -15 -24 0
-27 4 -31 38 -2 20 -3 2 -1 -40z"/>
<path d="M9600 4785 c0 -5 5 -17 10 -25 5 -8 10 -10 10 -5 0 6 -5 17 -10 25
-5 8 -10 11 -10 5z"/>
<path d="M11222 4740 c0 -19 2 -27 5 -17 2 9 2 25 0 35 -3 9 -5 1 -5 -18z"/>
<path d="M1595 4704 l-40 -36 43 32 c36 27 49 40 40 40 -2 0 -21 -16 -43 -36z"/>
<path d="M9651 4665 c0 -5 6 -21 14 -35 8 -14 14 -20 14 -15 0 6 -6 21 -14 35
-8 14 -14 21 -14 15z"/>
<path d="M10910 4655 c0 -13 30 -56 50 -72 8 -7 24 -12 35 -12 14 0 11 4 -12
14 -18 8 -42 29 -53 47 -11 18 -20 28 -20 23z"/>
<path d="M11233 4615 c0 -22 2 -30 4 -17 2 12 2 30 0 40 -3 9 -5 -1 -4 -23z"/>
<path d="M9736 4445 c3 -33 10 -186 14 -340 l8 -280 -3 315 c-2 186 -8 325
-14 340 -8 20 -9 12 -5 -35z"/>
<path d="M1360 4405 c-11 -13 -10 -14 4 -9 9 3 24 0 33 -7 15 -12 16 -12 10 4
-4 10 -7 21 -7 23 0 10 -29 2 -40 -11z"/>
<path d="M1420 4410 c0 -5 5 -10 10 -10 6 0 10 5 10 10 0 6 -4 10 -10 10 -5 0
-10 -4 -10 -10z"/>
<path d="M1513 4367 c0 -7 9 -14 19 -14 16 -2 17 1 8 13 -15 18 -27 18 -27 1z"/>
<path d="M12472 4329 c-52 -26 -134 -127 -201 -250 -102 -184 -217 -469 -346
-859 -76 -228 -79 -236 -127 -284 -26 -27 -48 -57 -48 -67 0 -9 -7 -20 -16
-23 -10 -4 -13 -2 -8 7 4 6 -1 5 -12 -4 -20 -18 -66 -35 -171 -64 l-62 -17 4
-57 c3 -31 10 -121 16 -201 24 -330 88 -560 185 -660 18 -19 32 -39 31 -45 -8
-38 209 -70 381 -55 113 10 133 16 200 65 177 127 282 549 282 1137 0 171 -23
415 -51 543 -10 45 -7 68 25 210 19 88 42 201 51 250 28 159 17 337 -21 352
-7 3 -14 11 -14 18 0 13 -21 25 -43 25 -7 0 -31 -10 -55 -21z m-196 -471 c-6
10 -3 13 10 10 11 -2 30 -24 44 -51 14 -26 30 -47 37 -47 6 0 25 -11 41 -25
16 -13 33 -21 37 -17 4 4 6 0 4 -8 -2 -8 6 -33 18 -55 11 -22 23 -51 27 -65 5
-21 4 -21 -10 5 -15 30 -15 30 -9 3 3 -15 0 -30 -6 -33 -18 -12 -22 2 -10 36
14 40 5 55 -20 33 -22 -20 -26 -3 -5 19 13 13 11 18 -13 41 -53 51 -110 31
-170 -60 -23 -35 -44 -64 -46 -64 -6 0 37 93 61 132 13 20 31 41 41 47 10 6
13 11 8 11 -6 0 -17 -6 -24 -12 -11 -11 -12 -9 -7 9 4 12 2 24 -3 28 -7 4 -9
-6 -7 -25 4 -31 3 -31 -16 -11 -22 24 -37 28 -18 6 10 -12 10 -19 2 -27 -9 -9
-12 -8 -12 4 0 8 -10 28 -21 42 l-22 28 33 29 c27 25 35 28 48 17 13 -11 14
-11 8 0z m107 -37 c43 -48 62 -81 47 -81 -6 0 -13 7 -16 15 -4 8 -11 15 -18
15 -21 0 -35 15 -51 53 -20 48 -6 47 38 -2z m-173 -52 c17 -31 7 -33 -20 -4
-19 20 -20 25 -7 25 9 0 21 -9 27 -21z m-10 -31 c10 -17 16 -36 12 -42 -4 -6
-8 -3 -10 9 -2 11 -13 30 -25 43 -11 12 -15 22 -9 22 7 0 21 -14 32 -32z m-26
-4 c23 -23 19 -40 -4 -19 -11 10 -20 22 -20 27 0 12 7 10 24 -8z m-4 -33 c13
-25 13 -34 0 -26 -16 10 -32 45 -21 45 6 0 15 -9 21 -19z m208 -22 c-5 -35
-28 -36 -28 -1 0 16 3 32 7 36 11 11 25 -10 21 -35z m-40 -1 c-3 -35 -28 -52
-28 -20 0 28 10 52 22 52 5 0 8 -14 6 -32z m82 -9 c0 -20 -15 -33 -28 -25 -5
3 -7 19 -4 36 3 25 7 28 18 19 8 -6 14 -20 14 -30z m-125 -21 c-4 -48 -4 -48
-16 -48 -7 0 -8 12 -4 33 12 56 24 65 20 15z m79 -14 c13 -5 13 -8 1 -20 -7
-8 -20 -14 -27 -14 -22 0 -59 -30 -52 -42 4 -7 2 -8 -4 -4 -7 4 -20 -7 -33
-29 -12 -20 -23 -34 -26 -32 -9 9 40 88 73 117 36 31 43 34 68 24z m119 -79
c4 -8 2 -17 -3 -20 -6 -4 -10 3 -10 14 0 25 6 27 13 6z m-97 -61 c19 -19 34
-40 34 -46 0 -5 6 -24 14 -41 24 -53 34 -97 51 -212 18 -125 21 -463 5 -591
-14 -108 -39 -242 -50 -262 -5 -10 -17 -42 -27 -72 l-18 -55 -5 76 c-4 57 -10
83 -24 98 -11 12 -23 18 -26 14 -12 -13 -84 -233 -78 -238 2 -3 30 9 61 25 80
44 88 12 12 -52 -21 -18 -62 -23 -80 -10 -30 22 -82 138 -100 220 -16 77 -38
292 -31 299 2 3 7 -17 10 -44 18 -151 37 -264 52 -313 l17 -55 23 72 c28 86
39 197 29 287 l-7 66 -60 0 -60 0 4 223 c6 246 24 364 80 509 52 138 109 171
174 102z m124 -29 c0 -8 -2 -15 -4 -15 -2 0 -6 7 -10 15 -3 8 -1 15 4 15 6 0
10 -7 10 -15z m-400 -530 c0 -8 -2 -15 -4 -15 -2 0 -6 7 -10 15 -3 8 -1 15 4
15 6 0 10 -7 10 -15z m-5 -195 c1 -94 -2 -170 -7 -170 -4 0 -8 28 -10 63 -4
93 2 277 10 277 4 0 7 -77 7 -170z m15 -292 c0 -32 -15 -19 -16 13 -1 20 2 26
7 17 5 -7 9 -21 9 -30z m31 -180 c0 -7 3 -24 5 -37 6 -33 -4 -21 -16 18 -5 19
-5 31 1 31 5 0 9 -6 10 -12z m19 -99 c0 -5 4 -8 9 -5 4 3 16 -12 26 -33 9 -21
22 -38 28 -38 35 1 57 -4 57 -13 0 -6 -9 -6 -26 0 -36 14 -39 13 -19 -10 22
-25 55 -26 56 -2 0 14 2 14 7 2 4 -9 20 -15 39 -15 37 1 30 -16 -16 -35 -30
-12 -71 -1 -71 20 0 6 -6 10 -14 10 -8 0 -25 22 -39 49 -16 33 -28 46 -34 40
-7 -7 -12 -2 -15 15 -3 14 -1 26 3 26 5 0 9 -5 9 -11z m86 -187 c2 -13 -2 -22
-8 -20 -6 2 -13 22 -14 43 -4 35 -2 37 8 20 6 -11 13 -30 14 -43z m104 -5 c0
-7 -4 -6 -10 3 -8 13 -10 12 -10 -4 0 -11 -3 -17 -6 -13 -4 3 -4 13 0 22 6 18
26 11 26 -8z m-53 -19 c-3 -7 -5 -2 -5 12 0 14 2 19 5 13 2 -7 2 -19 0 -25z"/>
<path d="M12230 3846 c0 -2 8 -10 18 -17 15 -13 16 -12 3 4 -13 16 -21 21 -21
13z"/>
<path d="M12200 3816 c0 -2 8 -10 18 -17 15 -13 16 -12 3 4 -13 16 -21 21 -21
13z"/>
<path d="M12303 3801 c0 -11 5 -18 9 -15 4 3 5 11 1 19 -7 21 -12 19 -10 -4z"/>
<path d="M12294 3466 l-28 -23 33 -74 c42 -94 59 -121 73 -113 6 4 8 3 4 -4
-3 -6 -2 -13 3 -16 16 -10 21 23 21 128 0 100 -1 103 -25 114 -37 17 -50 15
-81 -12z"/>
<path d="M12192 3234 c-26 -111 -45 -264 -40 -326 l3 -47 34 16 c25 12 41 32
58 71 38 81 40 150 8 256 -38 131 -40 132 -63 30z"/>
<path d="M12467 3140 c6 -150 7 -160 25 -160 12 0 4 112 -17 230 -13 74 -13
73 -8 -70z"/>
<path d="M12346 3058 c-9 -36 -7 -77 5 -101 l12 -21 9 23 c9 26 0 121 -12 121
-4 0 -10 -10 -14 -22z"/>
<path d="M12407 2903 c-13 -21 -18 -89 -9 -113 l10 -25 11 28 c6 16 11 40 10
55 -1 36 -14 68 -22 55z"/>
<path d="M12296 2854 c-10 -25 -7 -112 3 -119 6 -3 15 3 20 14 19 34 12 121
-9 121 -4 0 -11 -7 -14 -16z"/>
<path d="M12472 2653 c-17 -69 -20 -99 -13 -138 5 -27 9 -43 10 -35 1 8 8 69
16 134 8 66 13 121 12 123 -2 2 -13 -36 -25 -84z"/>
<path d="M12352 2677 c-14 -33 -16 -86 -2 -107 14 -23 22 7 18 76 -3 56 -4 58
-16 31z"/>
<path d="M8852 4279 c-13 -5 -28 -6 -34 -3 -5 3 -19 -2 -30 -13 -12 -10 -18
-12 -13 -4 6 11 3 13 -16 8 -13 -4 -31 -7 -39 -7 -12 -1 -11 -3 3 -11 9 -5 17
-18 18 -27 0 -14 2 -13 9 3 l9 20 0 -20 c1 -17 3 -17 11 -5 6 10 10 11 10 3 0
-7 7 -13 15 -13 9 0 12 6 8 16 -4 10 1 17 16 21 11 3 21 9 21 14 0 5 7 9 16 9
9 0 12 -5 8 -11 -4 -7 -1 -10 7 -7 8 3 13 11 11 18 -2 11 0 11 12 1 8 -7 17
-8 20 -3 13 22 -21 28 -62 11z"/>
<path d="M1500 4261 c0 -16 44 -42 66 -39 22 3 19 6 -21 24 -25 11 -45 18 -45
15z"/>
<path d="M8667 4236 c-3 -8 -3 -17 0 -20 10 -10 43 -7 43 5 0 5 5 7 10 4 6 -3
10 -2 10 3 0 5 -10 12 -22 16 -32 8 -35 8 -41 -8z"/>
<path d="M8582 4221 c-11 -7 -11 -9 0 -13 17 -6 38 1 38 13 0 11 -21 11 -38 0z"/>
<path d="M8635 4221 c-3 -5 -2 -12 3 -15 5 -3 9 1 9 9 0 17 -3 19 -12 6z"/>
<path d="M1540 4200 c0 -5 5 -10 11 -10 5 0 7 5 4 10 -3 6 -8 10 -11 10 -2 0
-4 -4 -4 -10z"/>
<path d="M1593 4186 c0 -8 13 -16 29 -18 22 -4 28 -1 28 14 0 13 -8 18 -28 18
-18 0 -29 -5 -29 -14z"/>
<path d="M1250 4146 c0 -2 7 -6 15 -10 8 -3 15 -1 15 4 0 6 -7 10 -15 10 -8 0
-15 -2 -15 -4z"/>
<path d="M1502 4110 c0 -14 2 -19 5 -12 2 6 2 18 0 25 -3 6 -5 1 -5 -13z"/>
<path d="M1630 4115 c0 -8 2 -15 4 -15 2 0 6 7 10 15 3 8 1 15 -4 15 -6 0 -10
-7 -10 -15z"/>
<path d="M1812 4110 c0 -14 2 -19 5 -12 2 6 2 18 0 25 -3 6 -5 1 -5 -13z"/>
<path d="M1603 4083 c4 -7 0 -13 -10 -15 -13 -3 -10 -6 9 -10 19 -3 29 0 33
11 3 8 3 12 -1 8 -4 -4 -14 -1 -22 6 -11 8 -14 8 -9 0z"/>
<path d="M1525 4070 c-3 -5 -1 -10 4 -10 6 0 11 5 11 10 0 6 -2 10 -4 10 -3 0
-8 -4 -11 -10z"/>
<path d="M1224 4025 c-9 -61 0 -67 13 -10 6 25 7 48 2 50 -4 3 -11 -15 -15
-40z"/>
<path d="M1803 4010 c0 -30 2 -43 4 -27 2 15 2 39 0 55 -2 15 -4 2 -4 -28z"/>
<path d="M1560 4031 c0 -11 4 -22 9 -25 18 -12 18 -46 0 -67 -29 -33 -23 -42
12 -17 27 20 30 27 24 58 -4 19 -8 42 -10 50 -3 24 -35 25 -35 1z"/>
<path d="M1610 4025 c0 -8 2 -15 4 -15 2 0 6 7 10 15 3 8 1 15 -4 15 -6 0 -10
-7 -10 -15z"/>
<path d="M3301 3976 c10 -8 199 -14 199 -5 0 5 -46 9 -102 9 -56 0 -99 -2 -97
-4z"/>
<path d="M1253 3914 c1 -34 5 -60 10 -57 9 5 8 60 -3 93 -6 18 -8 7 -7 -36z"/>
<path d="M3071 3893 c-40 -47 -49 -64 -33 -62 11 0 94 109 83 109 -5 0 -28
-21 -50 -47z"/>
<path d="M8580 3910 c0 -16 4 -30 8 -30 5 0 7 14 4 30 -2 17 -6 30 -8 30 -2 0
-4 -13 -4 -30z"/>
<path d="M3213 3923 c15 -2 39 -2 55 0 15 2 2 4 -28 4 -30 0 -43 -2 -27 -4z"/>
<path d="M8520 3919 c0 -5 5 -7 10 -4 6 3 10 8 10 11 0 2 -4 4 -10 4 -5 0 -10
-5 -10 -11z"/>
<path d="M3493 3914 c11 -11 227 -22 227 -11 0 4 -31 7 -69 7 -37 0 -90 3
-117 6 -28 4 -46 3 -41 -2z"/>
<path d="M8571 3844 c0 -11 3 -14 6 -6 3 7 2 16 -1 19 -3 4 -6 -2 -5 -13z"/>
<path d="M1250 3828 c-13 -8 -12 -9 2 -5 9 3 19 1 21 -6 2 -7 7 -9 11 -6 13
12 -19 28 -34 17z"/>
<path d="M1193 3820 c-27 -11 -29 -23 -6 -41 15 -12 16 -12 10 3 -4 12 0 19
14 23 10 4 19 11 19 16 0 11 -8 11 -37 -1z"/>
<path d="M1520 3815 c-14 -8 -20 -14 -14 -15 5 0 19 7 30 15 24 18 16 19 -16
0z"/>
<path d="M3236 3797 c-8 -31 -7 -39 3 -33 12 8 21 45 11 51 -4 3 -10 -5 -14
-18z"/>
<path d="M3650 3796 c0 -2 7 -7 16 -10 8 -3 12 -2 9 4 -6 10 -25 14 -25 6z"/>
<path d="M8523 3788 c-24 -12 -39 -38 -22 -38 7 0 9 -11 6 -25 -3 -17 0 -24 7
-22 6 2 10 12 8 22 -2 11 1 16 10 13 9 -4 13 4 14 28 0 19 0 34 0 33 -1 0 -11
-5 -23 -11z m17 -18 c0 -5 -4 -10 -10 -10 -5 0 -10 5 -10 10 0 6 5 10 10 10 6
0 10 -4 10 -10z"/>
<path d="M1150 3786 c0 -2 8 -10 18 -17 15 -13 16 -12 3 4 -13 16 -21 21 -21
13z"/>
<path d="M1400 3774 c0 -10 -13 -14 -47 -15 l-48 0 37 -14 c27 -10 46 -11 75
-3 21 6 55 9 76 9 24 -1 36 2 32 9 -3 5 -1 10 6 10 7 0 9 3 6 7 -4 3 -36 7
-72 9 -51 2 -65 -1 -65 -12z"/>
<path d="M1150 3746 c0 -21 21 -33 58 -33 17 0 31 1 30 2 -2 2 -22 12 -45 24
-33 17 -43 18 -43 7z"/>
<path d="M9743 3695 c0 -38 2 -53 4 -32 2 20 2 52 0 70 -2 17 -4 1 -4 -38z"/>
<path d="M1051 3740 c0 -23 21 -46 65 -69 77 -40 505 -137 572 -129 34 4 52
39 51 98 l-1 45 -10 -55 c-5 -30 -13 -58 -17 -62 -9 -10 -280 36 -425 73 -125
32 -208 67 -225 96 -8 14 -10 15 -10 3z"/>
<path d="M8469 3735 c-1 -11 -1 -26 0 -32 1 -8 -5 -10 -16 -6 -13 4 -11 0 7
-18 29 -28 44 -17 36 27 -7 35 -26 55 -27 29z"/>
<path d="M9866 3714 c-9 -24 -7 -84 3 -84 13 0 21 26 21 66 0 35 -13 46 -24
18z"/>
<path d="M1134 3706 c11 -9 24 -16 30 -16 12 0 7 5 -24 19 -24 11 -24 11 -6
-3z"/>
<path d="M9910 3703 c0 -12 -3 -28 -6 -37 -3 -9 -2 -16 4 -16 15 0 25 51 13
63 -8 8 -11 5 -11 -10z"/>
<path d="M1218 3673 c7 -3 16 -2 19 1 4 3 -2 6 -13 5 -11 0 -14 -3 -6 -6z"/>
<path d="M8430 3663 c0 -5 4 -14 9 -21 7 -11 9 -11 14 1 3 8 3 18 0 21 -9 8
-23 7 -23 -1z"/>
<path d="M1298 3653 c7 -3 16 -2 19 1 4 3 -2 6 -13 5 -11 0 -14 -3 -6 -6z"/>
<path d="M8391 3634 c-6 -15 -9 -29 -6 -32 3 -3 5 0 5 6 0 7 4 12 8 12 5 0 9
-7 9 -15 0 -8 -4 -15 -9 -15 -4 0 -8 -4 -8 -10 0 -5 7 -7 15 -4 8 4 15 12 15
20 0 8 8 14 18 15 11 0 7 5 -13 14 -16 8 -24 14 -17 15 6 0 12 5 12 10 0 19
-17 10 -29 -16z"/>
<path d="M1702 3610 c0 -14 2 -19 5 -12 2 6 2 18 0 25 -3 6 -5 1 -5 -13z"/>
<path d="M7689 3553 l-34 -38 36 33 c19 18 39 29 44 25 4 -5 5 -2 1 5 -10 16
-7 17 -47 -25z"/>
<path d="M9722 3460 c-7 -74 -24 -201 -38 -283 -14 -82 -23 -151 -21 -153 12
-13 82 486 75 543 -2 15 -9 -33 -16 -107z"/>
<path d="M1760 3516 c0 -19 4 -37 9 -40 10 -7 21 42 14 61 -10 25 -23 13 -23
-21z"/>
<path d="M11931 3534 c0 -11 3 -14 6 -6 3 7 2 16 -1 19 -3 4 -6 -2 -5 -13z"/>
<path d="M8062 3520 c0 -14 2 -19 5 -12 2 6 2 18 0 25 -3 6 -5 1 -5 -13z"/>
<path d="M7635 3510 c-9 -15 -121 -70 -185 -91 l-55 -18 55 5 c151 16 315 43
318 54 3 9 7 9 13 -1 8 -12 11 -11 19 1 5 8 9 20 9 25 0 6 -3 5 -5 -2 -4 -8
-13 -9 -29 -3 -16 6 -27 6 -31 -2 -4 -7 -3 -8 4 -4 7 4 12 2 12 -3 0 -17 -20
-13 -27 5 -4 12 -8 13 -14 3 -6 -11 -15 -10 -44 4 -20 9 -33 22 -30 27 3 6 4
10 1 10 -3 0 -8 -5 -11 -10z m16 -27 c13 -15 12 -16 -8 -11 -13 4 -26 2 -29
-3 -3 -5 3 -9 12 -9 10 0 15 -3 11 -6 -3 -4 -18 -3 -33 0 l-27 7 29 19 c16 10
30 19 30 19 1 1 8 -7 15 -16z"/>
<path d="M7886 3495 c-4 -10 1 -15 14 -15 13 0 18 5 14 15 -4 8 -10 15 -14 15
-4 0 -10 -7 -14 -15z"/>
<path d="M2312 3174 c-30 -30 -41 -50 -46 -84 -11 -78 -15 -343 -6 -390 5 -25
5 -48 2 -52 -4 -4 -72 2 -152 12 -192 25 -220 25 -220 1 0 -11 -5 -21 -11 -23
-7 -2 -2 -38 16 -108 15 -58 29 -106 30 -107 1 -2 125 -19 276 -38 238 -30
397 -47 894 -95 55 -6 242 -19 415 -30 173 -11 419 -26 545 -34 127 -8 329
-16 450 -18 l220 -3 27 95 c15 52 28 107 28 122 0 50 -24 56 -260 63 -118 4
-224 12 -234 17 -20 11 -21 -22 0 374 6 102 4 126 -10 156 -29 60 -49 64 -361
77 -304 13 -936 53 -1215 77 -96 8 -214 18 -262 21 l-87 6 -39 -39z m458 -19
c651 -43 876 -60 833 -63 -37 -3 -229 6 -1023 48 -107 6 -206 12 -220 13 l-25
3 25 11 c14 7 27 12 30 12 3 1 174 -10 380 -24z m74 -80 c7 -18 -2 -45 -15
-45 -13 0 -22 27 -15 45 3 8 10 15 15 15 5 0 11 -7 15 -15z m899 8 c-18 -2
-48 -2 -65 0 -18 2 -4 4 32 4 36 0 50 -2 33 -4z m-76 -87 c-8 -20 -36 -21 -43
-1 -4 8 0 22 7 31 11 13 14 13 27 0 8 -8 12 -22 9 -30z m-1057 -602 c0 -8 -4
-14 -10 -14 -5 0 -10 9 -10 21 0 11 5 17 10 14 6 -3 10 -13 10 -21z m660 -37
c0 -7 -7 -22 -15 -33 -14 -18 -14 -17 -15 14 0 22 5 32 15 32 8 0 15 -6 15
-13z m730 -45 c0 -13 -28 -47 -34 -42 -10 10 6 50 20 50 8 0 14 -4 14 -8z"/>
<path d="M3636 3011 c-4 -5 -2 -12 3 -15 5 -4 12 -2 15 3 4 5 2 12 -3 15 -5 4
-12 2 -15 -3z"/>
<path d="M8191 3114 c0 -11 3 -14 6 -6 3 7 2 16 -1 19 -3 4 -6 -2 -5 -13z"/>
<path d="M11769 3083 c-13 -16 -12 -17 4 -4 16 13 21 21 13 21 -2 0 -10 -8
-17 -17z"/>
<path d="M4680 3050 c0 -5 5 -10 11 -10 5 0 7 5 4 10 -3 6 -8 10 -11 10 -2 0
-4 -4 -4 -10z"/>
<path d="M8111 3031 c0 -16 3 -20 6 -11 3 8 10 20 14 26 5 7 3 11 -6 11 -10 0
-15 -10 -14 -26z"/>
<path d="M11570 3014 c-91 -25 -246 -68 -345 -96 -99 -28 -187 -52 -195 -53
-8 -1 -22 -5 -30 -8 -8 -3 -60 -18 -115 -32 -118 -32 -741 -218 -1040 -312
-242 -75 -315 -101 -315 -112 0 -4 120 30 268 76 610 192 1191 362 1648 483
236 62 281 76 290 91 3 5 4 9 2 8 -2 0 -77 -21 -168 -45z"/>
<path d="M4742 3015 c-13 -15 -17 -27 -11 -31 6 -3 13 4 16 16 4 16 8 18 14 8
6 -9 9 -7 9 10 0 28 -2 28 -28 -3z"/>
<path d="M4585 3021 c-3 -5 -2 -12 3 -15 5 -3 9 1 9 9 0 17 -3 19 -12 6z"/>
<path d="M4660 3021 c-8 -6 -17 -8 -20 -6 -4 2 -7 -2 -7 -10 0 -20 10 -19 38
5 24 20 16 27 -11 11z"/>
<path d="M8091 3004 c0 -11 3 -14 6 -6 3 7 2 16 -1 19 -3 4 -6 -2 -5 -13z"/>
<path d="M9627 2887 c-14 -67 -29 -142 -31 -167 l-6 -45 11 45 c37 162 61 282
57 285 -2 3 -16 -50 -31 -118z"/>
<path d="M4651 2981 c-7 -5 -22 -6 -32 -4 -10 3 -19 0 -19 -6 0 -5 7 -8 15 -5
8 4 15 1 15 -5 0 -6 7 -8 15 -5 8 4 15 1 15 -5 0 -6 8 -11 19 -11 14 0 17 6
13 26 -3 17 -7 22 -12 14 -5 -8 -9 -9 -11 -1 -3 6 -9 7 -18 2z"/>
<path d="M4740 2920 c0 -5 5 -10 10 -10 6 0 10 5 10 10 0 6 -4 10 -10 10 -5 0
-10 -4 -10 -10z"/>
<path d="M4590 2907 c0 -8 -8 -18 -17 -20 -17 -4 -17 -5 0 -6 18 -1 35 25 23
36 -3 4 -6 -1 -6 -10z"/>
<path d="M975 2886 c11 -7 31 -16 45 -20 19 -5 16 -2 -10 13 -40 23 -65 28
-35 7z"/>
<path d="M11548 2883 c7 -3 16 -2 19 1 4 3 -2 6 -13 5 -11 0 -14 -3 -6 -6z"/>
<path d="M1091 2763 c38 -151 53 -167 147 -157 39 4 87 2 124 -6 60 -13 60
-13 56 -46 -4 -32 -3 -32 47 -42 27 -6 52 -9 53 -7 2 2 1 21 -3 43 -6 37 -9
40 -48 45 -23 3 -87 16 -142 27 -89 19 -100 24 -101 43 -1 12 -12 59 -25 103
l-24 82 -51 16 c-28 9 -53 16 -56 16 -3 0 7 -53 23 -117z"/>
<path d="M9511 2764 c-12 -58 -20 -108 -18 -110 2 -3 14 43 27 101 12 59 20
108 18 111 -3 2 -15 -44 -27 -102z"/>
<path d="M4670 2840 c0 -5 5 -10 10 -10 6 0 10 5 10 10 0 6 -4 10 -10 10 -5 0
-10 -4 -10 -10z"/>
<path d="M4767 2759 c-4 -16 -3 -18 9 -8 7 6 11 15 8 20 -8 13 -11 11 -17 -12z"/>
<path d="M4710 2739 c0 -5 5 -7 10 -4 6 3 10 8 10 11 0 2 -4 4 -10 4 -5 0 -10
-5 -10 -11z"/>
<path d="M11018 2733 c7 -3 16 -2 19 1 4 3 -2 6 -13 5 -11 0 -14 -3 -6 -6z"/>
<path d="M10948 2713 c7 -3 16 -2 19 1 4 3 -2 6 -13 5 -11 0 -14 -3 -6 -6z"/>
<path d="M10908 2703 c7 -3 16 -2 19 1 4 3 -2 6 -13 5 -11 0 -14 -3 -6 -6z"/>
<path d="M9581 2624 c0 -11 3 -14 6 -6 3 7 2 16 -1 19 -3 4 -6 -2 -5 -13z"/>
<path d="M9572 2580 c0 -14 2 -19 5 -12 2 6 2 18 0 25 -3 6 -5 1 -5 -13z"/>
<path d="M4967 2561 c-4 -17 -3 -21 5 -13 5 5 8 16 6 23 -3 8 -7 3 -11 -10z"/>
<path d="M1212 2563 c-28 -3 -40 -8 -36 -15 5 -7 1 -9 -9 -5 -10 3 -17 3 -17
-2 0 -5 18 -65 40 -134 40 -125 43 -146 26 -159 -15 -10 59 -37 189 -68 186
-44 179 -44 201 -19 10 12 13 19 5 14 -8 -4 -17 -2 -22 6 -14 22 -10 32 9 24
11 -4 14 -3 7 4 -5 5 -62 21 -125 35 -119 25 -180 44 -147 45 17 1 17 3 3 23
-36 51 -16 56 114 32 30 -5 41 -1 68 22 40 35 42 62 5 69 -16 4 -46 11 -68 16
-22 6 -50 11 -62 12 -12 1 -25 5 -29 10 -15 15 -44 7 -44 -13 0 -33 -26 -23
-37 15 -11 35 -11 35 20 34 57 -1 97 12 97 31 0 13 -12 19 -52 24 -29 3 -62 5
-73 4 -11 -1 -39 -3 -63 -5z m112 -152 c16 -6 17 -9 6 -16 -11 -7 -10 -10 6
-15 14 -6 6 -10 -29 -15 -38 -6 -52 -4 -64 8 -36 35 21 62 81 38z"/>
<path d="M4925 2550 c3 -5 -2 -10 -12 -11 -20 -1 -12 -4 30 -13 18 -4 27 -13
27 -26 0 -11 5 -20 10 -20 11 0 13 11 4 34 -3 9 -12 16 -20 16 -8 0 -14 7 -14
15 0 8 -7 15 -16 15 -8 0 -12 -4 -9 -10z"/>
<path d="M9556 2514 c-4 -20 -5 -38 -3 -40 3 -3 8 11 11 32 4 20 5 38 3 40 -3
3 -8 -11 -11 -32z"/>
<path d="M5497 2515 c-4 -8 -2 -17 3 -20 6 -4 10 3 10 14 0 25 -6 27 -13 6z"/>
<path d="M4921 2492 c0 -15 5 -36 10 -47 7 -15 8 -11 4 17 -4 24 -1 38 7 40 8
3 6 7 -5 11 -14 5 -17 1 -16 -21z"/>
<path d="M5246 2495 c-10 -8 -16 -18 -15 -24 3 -6 12 -4 23 4 10 8 16 18 15
24 -3 6 -12 4 -23 -4z"/>
<path d="M5390 2506 c0 -2 11 -6 25 -8 13 -3 22 -1 19 3 -5 9 -44 13 -44 5z"/>
<path d="M5183 2473 c-19 -7 -16 -40 3 -47 23 -9 29 0 14 19 -16 19 -3 20 16
0 18 -18 34 -19 34 -3 0 6 -3 8 -7 5 -3 -4 -12 2 -20 13 -15 21 -19 22 -40 13z"/>
<path d="M8060 2469 c0 -6 -7 -8 -17 -5 -10 4 -14 4 -10 0 4 -4 1 -17 -6 -28
-12 -18 -11 -24 5 -41 19 -20 19 -20 9 10 -10 28 -10 29 4 11 15 -19 15 -19
15 2 0 12 -6 22 -12 23 -7 0 -3 4 10 9 22 9 31 30 12 30 -5 0 -10 -5 -10 -11z"/>
<path d="M4955 2460 c-3 -6 1 -7 9 -4 18 7 21 14 7 14 -6 0 -13 -4 -16 -10z"/>
<path d="M5381 2444 c0 -11 3 -14 6 -6 3 7 2 16 -1 19 -3 4 -6 -2 -5 -13z"/>
<path d="M4966 2435 c-9 -26 -7 -32 5 -12 6 10 9 21 6 23 -2 3 -7 -2 -11 -11z"/>
<path d="M1050 2423 c0 -26 111 -96 126 -80 11 11 -6 25 -36 32 -17 4 -44 18
-60 32 -17 14 -30 21 -30 16z"/>
<path d="M5035 2421 c-6 -5 -19 -11 -30 -13 -15 -3 -12 -5 11 -9 24 -4 30 -1
31 13 2 21 1 21 -12 9z"/>
<path d="M5245 2421 c-20 -4 -26 -9 -17 -14 14 -10 52 0 52 14 0 5 -1 8 -2 8
-2 -1 -16 -4 -33 -8z"/>
<path d="M7935 2390 c3 -5 8 -10 11 -10 2 0 4 5 4 10 0 6 -5 10 -11 10 -5 0
-7 -4 -4 -10z"/>
<path d="M7952 2378 c-7 -7 -12 -25 -12 -41 0 -24 3 -28 20 -24 10 3 21 0 24
-7 2 -6 5 -4 5 4 1 22 38 52 45 37 3 -7 5 -6 5 3 1 8 -11 21 -26 28 -34 15
-46 15 -61 0z m38 -9 c0 -5 5 -7 10 -4 6 3 10 1 10 -4 0 -6 -11 -11 -25 -11
-17 0 -25 -6 -25 -17 0 -9 -3 -13 -7 -10 -8 8 17 57 29 57 4 0 8 -5 8 -11z"/>
<path d="M5080 2371 c0 -6 5 -13 10 -16 6 -3 10 1 10 9 0 9 -4 16 -10 16 -5 0
-10 -4 -10 -9z"/>
<path d="M5110 2371 c0 -5 5 -13 10 -16 6 -3 10 -2 10 4 0 5 -4 13 -10 16 -5
3 -10 2 -10 -4z"/>
<path d="M1950 2336 c0 -30 46 -165 70 -204 11 -18 24 -31 29 -28 5 3 14 -1
21 -9 29 -35 171 -62 620 -119 521 -67 1147 -111 1695 -118 194 -3 221 5 262
76 21 39 69 193 62 200 -2 2 -193 11 -424 20 -631 25 -1006 49 -1475 96 -294
30 -722 82 -812 99 -45 8 -48 7 -48 -13z m695 -88 c12 -33 33 -214 26 -221 -4
-4 -18 41 -30 100 -24 123 -25 133 -11 133 6 0 13 -6 15 -12z m633 -149 c4
-118 -8 -173 -19 -84 -12 105 -11 187 4 183 8 -3 13 -35 15 -99z m697 4 c-13
-98 -25 -154 -35 -171 -8 -13 -10 6 -5 73 8 117 14 145 32 145 11 0 13 -10 8
-47z"/>
<path d="M5085 2330 c-3 -5 -1 -10 4 -10 6 0 11 5 11 10 0 6 -2 10 -4 10 -3 0
-8 -4 -11 -10z"/>
<path d="M5113 2328 c4 -11 2 -18 -6 -18 -7 0 -12 -13 -13 -30 -1 -16 3 -27 9
-23 5 3 6 -4 2 -18 -6 -20 -5 -22 6 -12 15 15 20 55 6 46 -6 -4 -8 1 -4 11 4
10 7 20 7 22 0 3 5 2 10 -1 16 -10 12 5 -7 23 -16 16 -16 16 -10 0z"/>
<path d="M5287 2329 c7 -7 15 -10 18 -7 3 3 -2 9 -12 12 -14 6 -15 5 -6 -5z"/>
<path d="M9640 2310 c-8 -5 -10 -10 -5 -10 6 0 17 5 25 10 8 5 11 10 5 10 -5
0 -17 -5 -25 -10z"/>
<path d="M1468 2263 c7 -3 16 -2 19 1 4 3 -2 6 -13 5 -11 0 -14 -3 -6 -6z"/>
<path d="M1508 2253 c6 -2 18 -2 25 0 6 3 1 5 -13 5 -14 0 -19 -2 -12 -5z"/>
<path d="M5171 2251 c-10 -7 -7 -9 12 -8 14 1 23 5 20 10 -6 9 -15 9 -32 -2z"/>
<path d="M7848 2203 c7 -3 16 -2 19 1 4 3 -2 6 -13 5 -11 0 -14 -3 -6 -6z"/>
<path d="M5130 2189 c0 -5 5 -7 10 -4 6 3 10 8 10 11 0 2 -4 4 -10 4 -5 0 -10
-5 -10 -11z"/>
<path d="M7837 2184 c-7 -7 14 -44 25 -44 5 0 8 12 7 28 0 15 -3 21 -6 13 -4
-9 -7 -10 -12 -2 -4 6 -10 8 -14 5z"/>
<path d="M7890 2050 c0 -5 5 -10 10 -10 6 0 10 5 10 10 0 6 -4 10 -10 10 -5 0
-10 -4 -10 -10z"/>
<path d="M7769 1954 c0 -5 -2 -19 -3 -32 -2 -18 1 -21 18 -16 30 9 30 10 7 35
-12 13 -21 19 -22 13z"/>
<path d="M7720 1861 c0 -6 4 -12 8 -15 5 -3 9 1 9 9 0 8 -4 15 -9 15 -4 0 -8
-4 -8 -9z"/>
</g>
</svg>
